<svg xmlns="http://www.w3.org/2000/svg" xmlns:xlink="http://www.w3.org/1999/xlink" width="760" height="476" viewBox="0 0 760 476"><defs><linearGradient id="a" x1="-577.62" y1="777.16" x2="-576.25" y2="776.89" gradientTransform="matrix(340.06, 0, 0, -200.67, 196721.4, 156072.68)" gradientUnits="userSpaceOnUse"><stop offset="0" stop-color="#bec5df"/><stop offset="1" stop-color="#b5bfe2"/></linearGradient><radialGradient id="b" cx="-565.5" cy="768.53" r="1.04" gradientTransform="matrix(39.26, -5.25, -5.25, -39.26, 26749.09, 27336.71)" gradientUnits="userSpaceOnUse"><stop offset="0" stop-color="#7787c2"/><stop offset="1" stop-color="#7787c3" stop-opacity="0"/></radialGradient><linearGradient id="c" x1="-566.11" y1="773.81" x2="-565.88" y2="773.12" gradientTransform="matrix(46.23, 0, 0, -59.15, 26680.83, 45839.49)" gradientUnits="userSpaceOnUse"><stop offset="0" stop-color="#fefeff"/><stop offset="1" stop-color="#f1f6ff"/></linearGradient><linearGradient id="d" x1="-547.45" y1="766.69" x2="-547.34" y2="766.18" gradientTransform="matrix(18.66, 0, 0, -25.86, 10728.76, 19922.11)" gradientUnits="userSpaceOnUse"><stop offset="0" stop-color="#8892bd"/><stop offset="1" stop-color="#555a6f"/></linearGradient><radialGradient id="e" cx="-566.85" cy="769.48" r="1.04" gradientTransform="matrix(43.62, -5.83, -5.83, -43.62, 29842.66, 30457.04)" xlink:href="#b"/><linearGradient id="f" x1="-551.41" y1="767.1" x2="-552.1" y2="767.22" gradientTransform="matrix(21.66, 0, 0, -26.55, 12595.35, 20553.67)" gradientUnits="userSpaceOnUse"><stop offset="0" stop-color="#a5b4cc"/><stop offset="1" stop-color="#c5cfe1"/></linearGradient><linearGradient id="g" x1="-569.81" y1="770.61" x2="-569.19" y2="770.32" gradientTransform="matrix(64.32, 0, 0, -37.45, 37256.62, 29021.51)" xlink:href="#c"/><linearGradient id="h" x1="-561.22" y1="763.04" x2="-560.45" y2="762.7" gradientTransform="matrix(32.74, 0, 0, -19.2, 18985.86, 14809.7)" gradientUnits="userSpaceOnUse"><stop offset="0" stop-color="#828bb3"/><stop offset="1" stop-color="#555a6f"/></linearGradient><linearGradient id="i" x1="-561.22" y1="763" x2="-560.41" y2="762.7" gradientTransform="matrix(32.74, 0, 0, -19.2, 18985.86, 14809.7)" gradientUnits="userSpaceOnUse"><stop offset="0" stop-color="#818bb3"/><stop offset="1" stop-color="#555a6f"/></linearGradient><radialGradient id="j" cx="-567.37" cy="769.92" r="1.08" gradientTransform="matrix(45.74, -5.89, -5.89, -45.74, 31182.94, 32122.61)" xlink:href="#b"/><linearGradient id="k" x1="-577.62" y1="777.16" x2="-576.25" y2="776.89" gradientTransform="matrix(340.06, 0, 0, -200.67, 196576.75, 156156.62)" xlink:href="#a"/><radialGradient id="l" cx="-566.85" cy="769.48" r="1.04" gradientTransform="matrix(43.62, -5.83, -5.83, -43.62, 29563.71, 30462.21)" xlink:href="#b"/><linearGradient id="m" x1="-551.41" y1="767.1" x2="-552.1" y2="767.22" gradientTransform="matrix(21.66, 0, 0, -26.55, 12316.39, 20558.84)" xlink:href="#f"/><linearGradient id="n" x1="-569.81" y1="770.61" x2="-569.19" y2="770.32" gradientTransform="matrix(64.32, 0, 0, -37.45, 36977.67, 29026.68)" xlink:href="#c"/><linearGradient id="o" x1="-559.44" y1="762.03" x2="-558.66" y2="761.68" gradientTransform="matrix(29.7, 0, 0, -18.08, 16949.5, 13944.97)" xlink:href="#d"/><linearGradient id="p" x1="-559.4" y1="762.09" x2="-558.63" y2="761.73" gradientTransform="matrix(29.7, 0, 0, -18.08, 16949.5, 13944.97)" xlink:href="#d"/><radialGradient id="q" cx="-566.85" cy="769.48" r="1.04" gradientTransform="matrix(43.62, -5.83, -5.83, -43.62, 29648.94, 30509.99)" xlink:href="#b"/><linearGradient id="r" x1="-551.41" y1="767.1" x2="-552.1" y2="767.22" gradientTransform="matrix(21.66, 0, 0, -26.55, 12401.63, 20606.62)" xlink:href="#f"/><linearGradient id="s" x1="-569.81" y1="770.61" x2="-569.19" y2="770.32" gradientTransform="matrix(64.32, 0, 0, -37.45, 37062.9, 29074.46)" xlink:href="#c"/><linearGradient id="t" x1="-560.23" y1="764.17" x2="-559.45" y2="763.75" gradientTransform="matrix(30.99, 0, 0, -20.66, 17782.48, 16004.83)" xlink:href="#d"/><linearGradient id="u" x1="-560.18" y1="764.26" x2="-559.41" y2="763.83" gradientTransform="matrix(30.99, 0, 0, -20.66, 17782.48, 16004.83)" xlink:href="#d"/><radialGradient id="v" cx="-566.85" cy="769.48" r="1.04" gradientTransform="matrix(43.62, -5.83, -5.83, -43.62, 29736.76, 30561.65)" xlink:href="#b"/><linearGradient id="w" x1="-551.41" y1="767.1" x2="-552.1" y2="767.22" gradientTransform="matrix(21.66, 0, 0, -26.55, 12489.45, 20658.28)" xlink:href="#f"/><linearGradient id="x" x1="-569.81" y1="770.61" x2="-569.19" y2="770.32" gradientTransform="matrix(64.32, 0, 0, -37.45, 37150.72, 29126.12)" xlink:href="#c"/><linearGradient id="y" x1="-561.67" y1="764.15" x2="-560.89" y2="763.79" gradientTransform="matrix(33.58, 0, 0, -20.66, 19363.22, 16056.49)" xlink:href="#d"/><linearGradient id="z" x1="-561.66" y1="764.15" x2="-560.89" y2="763.78" gradientTransform="matrix(33.58, 0, 0, -20.66, 19363.22, 16056.49)" xlink:href="#d"/><radialGradient id="aa" cx="-567.37" cy="769.92" r="1.08" gradientTransform="matrix(45.74, -5.89, -5.89, -45.74, 31038.3, 32206.55)" xlink:href="#b"/><linearGradient id="ab" x1="-577.62" y1="777.16" x2="-576.25" y2="776.89" gradientTransform="matrix(340.06, 0, 0, -200.67, 196328.79, 156297.39)" xlink:href="#a"/><radialGradient id="ac" cx="-566.76" cy="769.41" r="1.04" gradientTransform="matrix(43.28, -5.78, -5.78, -43.28, 29020.78, 30345.13)" xlink:href="#b"/><mask id="ad" x="23.53" y="285.04" width="66.92" height="42.14" maskUnits="userSpaceOnUse"><polygon points="41.6 325.5 90.1 298.2 90.1 286.2 42.2 313 23.9 300.4 23.5 313.8 41.6 325.5" style="fill:#fff"/></mask><linearGradient id="ae" x1="-587.78" y1="771.64" x2="-587.16" y2="771.32" gradientTransform="matrix(-65.62, -2.29, 1.39, -39.94, -39570.81, 29759.79)" xlink:href="#c"/><linearGradient id="af" x1="-557.23" y1="757.34" x2="-556.79" y2="757.21" gradientTransform="matrix(27.12, 0, 0, -14.21, 15165.98, 11052.12)" xlink:href="#d"/><radialGradient id="ag" cx="-566.76" cy="769.41" r="1.04" gradientTransform="matrix(43.28, -5.78, -5.78, -43.28, 29060.82, 30368.38)" xlink:href="#b"/><mask id="ah" x="63.56" y="308.29" width="66.92" height="42.14" maskUnits="userSpaceOnUse"><polygon points="81.6 348.8 130.1 321.4 130.1 309.4 82.3 336.3 64 323.7 63.6 337.1 81.6 348.8" style="fill:#fff"/></mask><linearGradient id="ai" x1="-587.78" y1="771.64" x2="-587.16" y2="771.32" gradientTransform="matrix(-65.62, -2.29, 1.39, -39.94, -39530.77, 29783.03)" xlink:href="#c"/><linearGradient id="aj" x1="-563.64" y1="763" x2="-563.2" y2="762.87" gradientTransform="matrix(38.74, 0, 0, -19.37, 21930.62, 15095.65)" xlink:href="#d"/><radialGradient id="ak" cx="-566.76" cy="769.41" r="1.04" gradientTransform="matrix(43.28, -5.78, -5.78, -43.28, 29100.85, 30391.62)" xlink:href="#b"/><mask id="al" x="103.6" y="331.53" width="66.92" height="42.14" maskUnits="userSpaceOnUse"><polygon points="121.6 372 170.1 344.7 170.2 332.7 122.3 359.5 104 346.9 103.6 360.3 121.6 372" style="fill:#fff"/></mask><linearGradient id="am" x1="-587.78" y1="771.64" x2="-587.16" y2="771.32" gradientTransform="matrix(-65.62, -2.29, 1.39, -39.94, -39490.74, 29806.28)" xlink:href="#c"/><linearGradient id="an" x1="-559.9" y1="760.61" x2="-559.46" y2="760.46" gradientTransform="matrix(30.99, 0, 0, -16.79, 17488.03, 13108.11)" xlink:href="#d"/><radialGradient id="ao" cx="-566.76" cy="769.41" r="1.04" gradientTransform="matrix(43.28, -5.78, -5.78, -43.28, 29142.18, 30414.87)" xlink:href="#b"/><mask id="ap" x="144.93" y="354.78" width="66.92" height="42.14" maskUnits="userSpaceOnUse"><polygon points="163 395.3 211.5 367.9 211.5 355.9 163.6 382.8 145.3 370.2 144.9 383.6 163 395.3" style="fill:#fff"/></mask><linearGradient id="aq" x1="-587.78" y1="771.64" x2="-587.16" y2="771.32" gradientTransform="matrix(-65.62, -2.29, 1.39, -39.94, -39449.41, 29829.53)" xlink:href="#c"/><linearGradient id="ar" x1="-560.66" y1="760.59" x2="-560.22" y2="760.45" gradientTransform="matrix(32.29, 0, 0, -16.79, 18275.82, 13131.36)" xlink:href="#d"/><radialGradient id="as" cx="-566.76" cy="769.41" r="1.04" gradientTransform="matrix(43.28, -5.78, -5.78, -43.28, 29184.79, 30438.11)" xlink:href="#b"/><mask id="at" x="187.54" y="378.03" width="66.92" height="42.14" maskUnits="userSpaceOnUse"><polygon points="205.6 418.5 254.1 391.2 254.1 379.2 206.2 406 188 393.4 187.5 406.8 205.6 418.5" style="fill:#fff"/></mask><linearGradient id="au" x1="-587.78" y1="771.64" x2="-587.16" y2="771.32" gradientTransform="matrix(-65.62, -2.29, 1.39, -39.94, -39406.79, 29852.77)" xlink:href="#c"/><linearGradient id="av" x1="-565.39" y1="766.88" x2="-564.95" y2="766.71" gradientTransform="matrix(43.91, 0, 0, -25.83, 25043, 20192.99)" xlink:href="#d"/><radialGradient id="aw" cx="-566.76" cy="769.41" r="1.04" gradientTransform="matrix(43.28, -5.78, -5.78, -43.28, 29224.83, 30461.36)" xlink:href="#b"/><mask id="ax" x="227.58" y="401.27" width="66.92" height="42.14" maskUnits="userSpaceOnUse"><polygon points="245.6 441.8 294.1 414.4 294.1 402.4 246.3 429.2 228 416.7 227.6 430.1 245.6 441.8" style="fill:#fff"/></mask><linearGradient id="ay" x1="-587.78" y1="771.64" x2="-587.16" y2="771.32" gradientTransform="matrix(-65.62, -2.29, 1.39, -39.94, -39366.76, 29876.02)" xlink:href="#c"/><linearGradient id="az" x1="-565.4" y1="766.26" x2="-564.96" y2="766.11" gradientTransform="matrix(43.91, 0, 0, -24.54, 25083.04, 19210.2)" xlink:href="#d"/><radialGradient id="ba" cx="-566.76" cy="769.41" r="1.04" gradientTransform="matrix(43.28, -5.78, -5.78, -43.28, 29264.86, 30484.61)" xlink:href="#b"/><mask id="bb" x="267.61" y="424.52" width="66.92" height="42.14" maskUnits="userSpaceOnUse"><polygon points="285.7 465 334.1 437.7 334.2 425.7 286.3 452.5 268 439.9 267.6 453.3 285.7 465" style="fill:#fff"/></mask><linearGradient id="bc" x1="-587.78" y1="771.64" x2="-587.16" y2="771.32" gradientTransform="matrix(-65.62, -2.29, 1.39, -39.94, -39326.72, 29899.26)" xlink:href="#c"/><linearGradient id="bd" x1="-566.79" y1="767.42" x2="-566.35" y2="767.27" gradientTransform="matrix(49.08, 0, 0, -27.12, 28110.2, 21244.24)" xlink:href="#d"/><radialGradient id="be" cx="-567.37" cy="769.92" r="1.08" gradientTransform="matrix(45.74, -5.89, -5.89, -45.74, 30790.34, 32347.32)" xlink:href="#b"/><radialGradient id="bf" cx="-565.5" cy="768.53" r="1.04" gradientTransform="matrix(39.26, -5.25, -5.25, -39.26, 26550.96, 27524.08)" xlink:href="#b"/><linearGradient id="bg" x1="-568.69" y1="769.38" x2="-568.07" y2="769.11" gradientTransform="matrix(57.22, 0, 0, -32.52, 32835.3, 25311.63)" xlink:href="#c"/><mask id="bh" x="282.5" y="276.37" width="57.22" height="32.52" maskUnits="userSpaceOnUse"><polygon points="332 280.7 339.7 297 318.9 308.9 290.2 304.5 282.5 288.3 303.4 276.4 332 280.7" style="fill:#fff"/></mask><linearGradient id="bi" x1="-552.46" y1="755.78" x2="-551.7" y2="755.42" gradientTransform="matrix(21.89, 0, 0, -13.13, 12397.15, 10215.94)" xlink:href="#h"/><linearGradient id="bj" x1="-552.47" y1="755.74" x2="-551.65" y2="755.43" gradientTransform="matrix(21.89, 0, 0, -13.13, 12397.15, 10215.94)" xlink:href="#i"/><linearGradient id="bk" x1="-550.26" y1="765.94" x2="-551.03" y2="766.06" gradientTransform="matrix(20.8, 0, 0, -24.08, 11780.72, 18754.5)" xlink:href="#f"/></defs><title>数据仓库迁移cn</title><g style="opacity:0.4000000059604645"><polygon points="403.2 96.2 670.6 249.3 696.2 249.3 743.2 221.1 743.2 202.9 474 48.6 451.6 48.6 403.2 78.7 403.2 96.2" style="fill:url(#a)"/></g><polygon points="516.8 135.2 558.9 135.2 558.9 95.6 554 95.6 516.8 95.6 516.8 135.2" style="opacity:0.20401786267757416;isolation:isolate;fill:url(#b)"/><polygon points="533.6 121.1 509.8 107.1 493.1 116.6 493.1 119.7 516.9 134.3 533.6 124.1 533.6 121.1" style="fill:none;stroke:#555a6f"/><polygon points="493.6 117.4 493.6 119.5 516.2 133 516.2 131.1 493.6 117.4" style="fill:#d5e0f3"/><polygon points="532.5 121.7 509.8 108.2 494 117.1 516.8 131.2 532.5 121.7" style="fill:#f1f6ff"/><polyline points="528.5 124 516.8 131 516.8 133.7 516.8 131 493.8 117" style="fill:none;stroke:#7787c3;stroke-opacity:0.60402512550354;stroke-width:0.727649986743927px"/><polygon points="519.6 115.1 505.5 107.2 505.5 117.1 519.6 125.1 519.6 115.1" style="fill:#e3ebf9"/><polygon points="520.6 116.9 504.5 107.7 504.5 117.7 519.6 126.2 522.6 124.5 522.6 117.9 520.6 116.9" style="fill:none;stroke:#555a6f"/><path d="M519.6,117.7v8.3" style="fill:none;stroke:#555a6f"/><path d="M488.6,59.7h-1.3l3.5-2.1h2.1l48.6,27.2.4.3h.1l.4.4h.1v.3h.8V86h.3v.5h.3v.3a4,4,0,0,1,0,.5v37.8a1.9,1.9,0,0,1-.8,1.8l-4.8,2.1a1.9,1.9,0,0,0,.8-1.8L540.3,92a4.1,4.1,0,0,0,0-.5v-.3h-.1V89.4h-.4v-.3h-.1l-.4-.4h-.1l-.4-.3L489.3,59.9h-.6Z" style="fill:#e8ecf3"/><path d="M490.6,60.1h0a2.2,2.2,0,0,0-3.5,2.1V95.6a6.6,6.6,0,0,0,3,5.3l46.8,26.6a2.2,2.2,0,0,0,3.5-2.1V92.5a6.6,6.6,0,0,0-3-5.2Z" style="fill:#e5eaf3;stroke:#7787c3;stroke-opacity:0.6023833751678467;stroke-width:0.727649986743927px"/><polygon points="536.4 90.5 490.4 63.9 490.6 96.5 536.7 123.1 536.4 90.5" style="fill:url(#c)"/><path d="M502.8,86a.8.8,0,1,1,1.4,0V97.5a.8.8,0,1,1-1.4,0Zm8.7-3.7a.8.8,0,0,1,1.4,0v20.1a.8.8,0,1,1-1.4,0ZM520,95.7a.8.8,0,0,1,1.4,0v11.5a.8.8,0,0,1-1.4,0Z" style="fill:url(#d)"/><path d="M540.1,128.5l2.5-1.9a2.8,2.8,0,0,0,1.2-2.6V89.9a5.6,5.6,0,0,0-.8-2.7,13,13,0,0,0-2.5-2.8L493.3,57.1l-.6-.3h-2.5l-2.3,1.8a2.8,2.8,0,0,0-1.3,2.6v34a7.1,7.1,0,0,0,3.2,5.7L537,128.1a2.8,2.8,0,0,0,3.1.4Z" style="fill:none;stroke:#555a6f"/><polygon points="631.3 199.7 678.1 199.7 678.1 155.7 672.6 155.7 631.3 155.7 631.3 199.7" style="opacity:0.20401786267757416;isolation:isolate;fill:url(#e)"/><polygon points="635.9 185 657.5 172.4 657.4 186.4 635.8 199 635.9 185" style="fill:url(#f)"/><polygon points="627.3 184.8 635.8 184.8 635.8 199 627.2 199 627.3 184.8" style="fill:#d1dae8"/><polygon points="627.3 190.6 627.2 199 593.1 179.1 593.2 165.2 627.3 185 627.3 190.6" style="fill:#e3ebf9"/><polygon points="657.4 167.4 657.5 172.4 635.9 185 627.3 185 593.2 165.2 593.1 160.2 614.7 147.6 623.3 147.6 657.4 167.4" style="fill:url(#g)"/><path d="M636.1,161.3h0l1.5.9a.4.4,0,0,1,.2.3.4.4,0,0,1-.2.3l-1,.6,1.8,1.1a1.8,1.8,0,0,1,1,1.4,1.6,1.6,0,0,1-.9,1.4l-12.9,7.6a5.2,5.2,0,0,1-4.7,0h0l-13.2-7.6a1.8,1.8,0,0,1-1-1.4,1.6,1.6,0,0,1,.9-1.4l12.9-7.6a5.2,5.2,0,0,1,4.7,0l1.5.9.2.2,1.1-.7a1.2,1.2,0,0,1,1.1,0l1.5.9h0a6,6,0,0,1,5.5-.1C637.6,159,637.6,160.4,636.1,161.3ZM626,158.4h-.4l-1.5-.9a2.9,2.9,0,0,0-2.6,0l-12.9,7.6a.9.9,0,0,0-.5.8,1,1,0,0,0,.6.8l13.2,7.6a2.9,2.9,0,0,0,2.6,0l12.9-7.6a.9.9,0,0,0,.5-.8,1,1,0,0,0-.6-.8l-1.8-1.1-1.9,1.1h-1.1l-8.5-4.9c-.3-.2-.3-.5,0-.6Zm-3.1,12c.3.2.3.5,0,.6a1.2,1.2,0,0,1-1.1,0l-8.2-4.7c-.3-.2-.3-.5,0-.6a1.2,1.2,0,0,1,1.1,0Zm3-1.8c.3.2.3.5,0,.6a1.2,1.2,0,0,1-1.1,0l-8.2-4.7c-.3-.2-.3-.5,0-.6a1.2,1.2,0,0,1,1.1,0Zm3-1.8c.3.2.3.5,0,.6a1.2,1.2,0,0,1-1.1,0l-8.2-4.7c-.3-.2-.3-.5,0-.6a1.2,1.2,0,0,1,1.1,0Zm6.1-8.2a3.7,3.7,0,0,0-3.4,0l-.4.3-.6.2h-.6l-1.6-.9-2.8,1.7,7.5,4.3,2.8-1.7-1.6-.9a.3.3,0,0,1-.2-.4.5.5,0,0,1,.4-.3l.5-.2A1.1,1.1,0,0,0,635,158.7Z" style="stroke-width:0.30000001192092896px;fill:url(#h);stroke:url(#i)"/><polygon points="657.3 172.1 657.6 172.7 636 185.3 635.9 185.4 627.3 185.4 627.1 185.3 592.5 165.2 592.8 164.6 627.4 184.7 635.8 184.7 657.3 172.1" style="fill:#7d849e;opacity:0.4000000059604645;isolation:isolate"/><path d="M635.8,192.2h0Zm0,0,21.5-12.6.3.6L636,192.8h-8.9l-34.7-20.2.3-.6,34.6,20.1Zm-8.4,0h0Z" style="fill:#7d849e;opacity:0.4000000059604645;isolation:isolate"/><path d="M593.1,179.2,627.2,199h8.6l21.5-12.6v-19l-34.1-19.8h-8.5l-21.7,12.6Zm-1.4.8V159.4l22.7-13.2h9.2l35.1,20.4v20.6l-22.5,13.2h-9.4Z" style="fill:#555a6f"/><path d="M738.4,184.9l3.6,8.5" style="fill:none;stroke:#d7e0ff;stroke-linecap:round;stroke-linejoin:round;stroke-width:0.699999988079071px;stroke-dasharray:2.799999952316284"/><path d="M403.2,54.7l48.2-28h22.9L742,179.7V194l-45.8,26.6V248" style="fill:none;stroke:#d7e0ff;stroke-linecap:round;stroke-linejoin:round;stroke-width:0.699999988079071px;stroke-dasharray:2.799999952316284"/><path d="M697.1,248V220.1H671.7" style="fill:none;stroke:#d7e0ff;stroke-linecap:round;stroke-linejoin:round;stroke-width:0.699999988079071px;stroke-dasharray:2.799999952316284"/><path d="M670.4,248V220.4L404.4,68" style="fill:none;stroke:#d7e0ff;stroke-linecap:round;stroke-linejoin:round;stroke-width:0.699999988079071px;stroke-dasharray:2.799999952316284"/><path d="M409.2,46.1V58.9L673.1,209.2h22L738.4,184V171.3" style="fill:none;stroke:#d7e0ff;stroke-linecap:round;stroke-linejoin:round;stroke-width:0.699999988079071px;stroke-dasharray:2.799999952316284"/><path d="M408,59.5,404.4,68M671.7,220.1l1.2-9.7" style="fill:none;stroke:#d7e0ff;stroke-linecap:round;stroke-linejoin:round;stroke-width:0.699999988079071px;stroke-dasharray:2.799999952316284"/><path d="M696,210.4l1.2,9.7m-25.4,0,1.2-9.7" style="fill:none;stroke:#d7e0ff;stroke-linecap:round;stroke-linejoin:round;stroke-width:0.699999988079071px;stroke-dasharray:2.799999952316284"/><path d="M408.1,46.4l43.7-25.1h22.8L738,171.8l4.5,7.4v42l-46.3,27.3H670.4L403.9,96V53.5Z" style="fill:none;stroke:#999fb6;stroke-linecap:round;stroke-linejoin:round"/><path d="M474.9,20.7l-.2,27.2,268.6,154" style="fill:none;stroke:#d7e0ff;stroke-linecap:round;stroke-linejoin:round;stroke-width:0.699999988079071px;stroke-dasharray:2.799999952316284"/><path d="M404.4,77.7l47.3-29.8V20.7" style="fill:none;stroke:#d7e0ff;stroke-linecap:round;stroke-linejoin:round;stroke-width:0.699999988079071px;stroke-dasharray:2.799999952316284"/><path d="M452.9,48h23" style="fill:none;stroke:#d7e0ff;stroke-linecap:round;stroke-linejoin:round;stroke-width:0.699999988079071px;stroke-dasharray:2.799999952316284"/><polygon points="697.2 249.3 748.1 249.3 748.1 203.1 743.8 203.1 743.8 222.1 697.2 249.3" style="opacity:0.10401785373687744;isolation:isolate;fill:url(#j)"/><g style="opacity:0.4000000059604645"><polygon points="258.5 180.2 525.9 333.2 551.6 333.2 598.6 305.1 598.6 286.8 329.4 132.5 306.9 132.5 258.5 162.6 258.5 180.2" style="fill:url(#k)"/></g><polygon points="352.3 204.8 399.1 204.8 399.1 160.8 393.7 160.8 352.3 160.8 352.3 204.8" style="opacity:0.20401786267757416;isolation:isolate;fill:url(#l)"/><polygon points="356.9 190.2 378.5 177.6 378.4 191.5 356.8 204.1 356.9 190.2" style="fill:url(#m)"/><polygon points="348.3 190 356.9 190 356.8 204.2 348.2 204.2 348.3 190" style="fill:#d1dae8"/><polygon points="348.3 195.8 348.3 204.1 314.1 184.3 314.2 170.4 348.3 190.2 348.3 195.8" style="fill:#e3ebf9"/><polygon points="378.5 172.6 378.5 177.6 356.9 190.2 348.3 190.2 314.2 170.4 314.2 165.4 335.8 152.8 344.3 152.8 378.5 172.6" style="fill:url(#n)"/><path d="M354.8,164.5c4.2,2.5,6.3,5.4,4.5,6.7h-.1l-5.5,3.4h-1.6l.6-.4a20.1,20.1,0,0,1-9-3c-3-1.8-4.9-3.8-5.1-5.2v-.2l-2.6,1.6c-1.4.9.4,3.5,4.4,5.9l2.9,1.4h-1.8l-1.9-1c-3-1.8-4.9-3.8-5.1-5.2v-.2l-2.6,1.6c-1.4.9.4,3.5,4.4,5.9l1.2.6h-.3l-.4.4-1.3-.7c-4.2-2.5-6.3-5.5-4.5-6.7h.1l12.4-7.6C345.5,160.7,350.5,161.9,354.8,164.5Zm-.5,11.2c.9,0,1.7.4,1.7,1v1.7c0,.6-.7,1-1.7,1l-12.9.2-.7-.2-2.1-1.1h0a.6.6,0,0,1-.3-.4.6.6,0,0,1,.3-.5h.1l2.1-1.2.8-.2Zm-13.7,1.1-1.8,1,1.8.9Zm11.9-.4-10.7.2v2.5l10.7-.2Zm2.4.1h-1.3v2.5h.9c.3,0,.6-.2.6-.4v-1.8A.3.3,0,0,0,355,176.3Zm-5.9-1.7h-1A1,1,0,0,1,349.1,174.6Zm7.8-2.8a20.1,20.1,0,0,1-9-3c-3-1.8-4.9-3.8-5.1-5.2v-.2l-2.6,1.6c-1.4.9.4,3.5,4.4,5.9s8.2,3.3,9.7,2.6h.1Zm-3.7.3c.3.2.3.4,0,.6h-.7a.6.6,0,0,1-.5-.3c-.1-.1,0-.3.2-.4A1,1,0,0,1,353.2,172.1Zm.8-7.1c-3.9-2.3-8.4-3.4-9.8-2.5s.4,3.5,4.4,5.9,8.4,3.4,9.8,2.5S358,167.3,354,165Z" style="stroke-width:0.6000000238418579px;fill:url(#o);stroke:url(#p)"/><polygon points="378.3 177.3 378.7 177.9 357.1 190.5 356.9 190.5 348.3 190.5 348.2 190.5 313.5 170.3 313.8 169.7 348.4 189.9 356.8 189.9 378.3 177.3" style="fill:#7d849e;opacity:0.4000000059604645;isolation:isolate"/><path d="M356.8,197.3h0Zm0,0,21.5-12.6.3.6L357.1,198h-8.9l-34.7-20.2.3-.6,34.6,20.1Zm-8.4,0h0Z" style="fill:#7d849e;opacity:0.4000000059604645;isolation:isolate"/><path d="M314.1,184.4l34.1,19.8h8.6l21.5-12.6v-19l-34.1-19.8h-8.5l-21.7,12.6Zm-1.4.8V164.6l22.7-13.2h9.2l35.1,20.4v20.6l-22.5,13.2h-9.4Z" style="fill:#555a6f"/><polygon points="437.6 252.6 484.4 252.6 484.4 208.6 478.9 208.6 437.6 208.6 437.6 252.6" style="opacity:0.20401786267757416;isolation:isolate;fill:url(#q)"/><polygon points="442.1 238 463.7 225.4 463.6 239.3 442.1 251.9 442.1 238" style="fill:url(#r)"/><polygon points="433.6 237.8 442.1 237.8 442.1 252 433.5 252 433.6 237.8" style="fill:#d1dae8"/><polygon points="433.6 243.6 433.5 251.9 399.4 232.1 399.4 218.2 433.6 238 433.6 243.6" style="fill:#e3ebf9"/><polygon points="463.7 220.4 463.7 225.4 442.1 238 433.6 238 399.4 218.2 399.4 213.2 421 200.5 429.6 200.5 463.7 220.4" style="fill:url(#s)"/><path d="M441.3,212.2c4.3,2.5,6.4,5.5,4.5,6.8h-.2l-8.4,5.1a2.6,2.6,0,0,0-.2-.8l1.8-1.1a13.3,13.3,0,0,1-3.2-.4l-.4-.2a8.6,8.6,0,0,0-3.3-1l-2.5-1.3c-3.1-1.8-5-3.8-5.2-5.3v-.2l-2.7,1.7c-1.5.9.4,3.6,4.4,6h0l-.7.4h-.1c-3.1-1.8-5-3.8-5.2-5.3v-.2l-2.7,1.7c-1.5.9.4,3.6,4.4,6l1.5.8a2.5,2.5,0,0,0,.2,1l-2.5-1.3c-4.3-2.5-6.4-5.5-4.5-6.8h.1l13.1-8C431.7,208.4,436.8,209.6,441.3,212.2Zm-7.2,10.2c2.1,1.2,2,3.2-.2,4.6a7.7,7.7,0,0,1-3.1,1v1.4c0,.3-.4.5-.8.5s-.8-.2-.8-.4V228a6.9,6.9,0,0,1-3-.8c-2.1-1.2-2-3.2.2-4.6A8.3,8.3,0,0,1,434.1,222.4Zm-1.1.7a5.9,5.9,0,0,0-5.5.2c-1.6.9-1.6,2.4-.1,3.3a5.9,5.9,0,0,0,5.5-.2C434.4,225.4,434.4,223.9,433,223.1Zm10.2-3.4a20.4,20.4,0,0,1-9.3-2.9c-3.1-1.8-5-3.8-5.2-5.3v-.2l-2.7,1.7c-1.5.9.4,3.6,4.4,6s8.4,3.3,10,2.5h.1Zm-3.8.4c.3.2.3.4,0,.6h-.7a.6.6,0,0,1-.5-.3c-.1-.1,0-.3.2-.4A1.1,1.1,0,0,1,439.4,220Zm1.1-7.3c-4-2.3-8.6-3.4-10.1-2.5s.4,3.6,4.4,6,8.7,3.3,10.1,2.5S444.5,215,440.4,212.7Z" style="stroke-width:0.6000000238418579px;fill:url(#t);stroke:url(#u)"/><polygon points="463.6 225.1 463.9 225.7 442.3 238.3 442.1 238.3 433.6 238.3 433.4 238.3 398.7 218.1 399.1 217.5 433.7 237.7 442.1 237.7 463.6 225.1" style="fill:#7d849e;opacity:0.4000000059604645;isolation:isolate"/><path d="M442,245.1h0Zm0,0,21.5-12.6.3.6-21.6,12.6h-8.9l-34.7-20.2.3-.6,34.6,20.1Zm-8.4,0h0Z" style="fill:#7d849e;opacity:0.4000000059604645;isolation:isolate"/><path d="M399.4,232.2,433.5,252h8.6l21.5-12.6v-19l-34.1-19.8H421l-21.7,12.6Zm-1.4.8V212.3l22.7-13.2h9.2l35.1,20.4v20.6l-22.5,13.2h-9.4Z" style="fill:#555a6f"/><polygon points="525.4 304.3 572.2 304.3 572.2 260.3 566.7 260.3 525.4 260.3 525.4 304.3" style="opacity:0.20401786267757416;isolation:isolate;fill:url(#v)"/><polygon points="530 289.6 551.6 277 551.5 291 529.9 303.6 530 289.6" style="fill:url(#w)"/><polygon points="521.4 289.4 529.9 289.4 529.9 303.6 521.3 303.6 521.4 289.4" style="fill:#d1dae8"/><polygon points="521.4 295.2 521.3 303.6 487.2 283.8 487.3 269.8 521.4 289.6 521.4 295.2" style="fill:#e3ebf9"/><polygon points="551.5 272 551.6 277 530 289.6 521.4 289.6 487.3 269.8 487.2 264.8 508.8 252.2 517.4 252.2 551.5 272" style="fill:url(#x)"/><path d="M534.2,268.6a.3.3,0,0,1,.2.4l-1,2.5a1.7,1.7,0,0,1-.8,1h-.1l-1.2.8a4.5,4.5,0,0,1-2.5.5l-10.6,6.8.4.3c.2.1.2.4,0,.5a.9.9,0,0,1-.9,0l-6.1-3.7-9.9-5.9h0l-.8-.5c-.2-.1-.2-.4,0-.5a.9.9,0,0,1,.9,0l.4.3,10.5-6.8a1.6,1.6,0,0,1,.8-1.6h0l1.1-.7h0a3.8,3.8,0,0,1,1.6-.5h0l4.5-.5h.5Zm-11.2,1.2a4.2,4.2,0,0,1-2.6-.4,1.4,1.4,0,0,1-.8-1.6,4.2,4.2,0,0,1-2.6-.4,1.4,1.4,0,0,1-.8-1.6,4.2,4.2,0,0,1-2.6-.4l-.4-.3-10.1,6.6.8.5,4.6,2.8,4,2.4,4.9,2.9,10.1-6.6-.5-.2a1.4,1.4,0,0,1-.8-1.5,4.2,4.2,0,0,1-2.5-.5A1.4,1.4,0,0,1,522.9,269.8Zm-3.3,0c1.8,1,2.5,2.4,1.7,3h-.1l-4.5,2.9c-.9.6-3.2.2-5-.9s-2.5-2.4-1.7-3h.1l4.5-2.9h.1C515.7,268.3,517.8,268.7,519.6,269.8Zm-2.3,4.8a8.4,8.4,0,0,1-3.3-1.1,4.3,4.3,0,0,1-2-2l-1.2.8c-.4.3.1,1.3,1.6,2.2s3.2,1.2,3.7.9Zm2.3-1.5a8.4,8.4,0,0,1-3.3-1.1,4.3,4.3,0,0,1-2-2l-1.3.8c-.4.3.1,1.3,1.6,2.2a5.7,5.7,0,0,0,3.6,1h.1Zm-.6-2.9c-1.5-.9-3.2-1.2-3.7-.9s.1,1.3,1.6,2.2,3.2,1.2,3.7.9S520.4,271.1,518.9,270.2ZM533,269l-12.3-7.4-4.7.5-1.4.9h0c-.7.5-.7,1.2,0,1.6a2.7,2.7,0,0,0,2.5-.1.9.9,0,0,1,.9,0c.2.1.2.4,0,.5h0a.9.9,0,0,0,0,1.6,2.7,2.7,0,0,0,2.5-.1.9.9,0,0,1,.9,0c.2.1.2.4,0,.5h0a.9.9,0,0,0,0,1.6,2.7,2.7,0,0,0,2.5-.1.9.9,0,0,1,.9,0c.2.1.2.4,0,.5h0a.9.9,0,0,0,0,1.6,3.1,3.1,0,0,0,2.6-.1.9.9,0,0,1,.8,0,.3.3,0,0,1,0,.5c-.6.5-.7,1.2-.1,1.5a2.7,2.7,0,0,0,2.5-.1h0l1.4-.9Zm-1.9,1.5c.2.1.2.4,0,.5a.9.9,0,0,1-.9,0l-12.9-7.7c-.2-.1-.2-.4,0-.5a.9.9,0,0,1,.9,0Z" style="stroke-width:0.5px;fill:url(#y);stroke:url(#z)"/><polygon points="551.4 276.7 551.7 277.3 530.1 289.9 530 290 521.4 290 521.2 289.9 486.6 269.8 486.9 269.2 521.5 289.3 529.9 289.3 551.4 276.7" style="fill:#7d849e;opacity:0.4000000059604645;isolation:isolate"/><path d="M529.9,296.8h0Zm0,0,21.5-12.6.3.6-21.6,12.6h-8.9l-34.7-20.2.3-.6,34.6,20.1Zm-8.4,0h0Z" style="fill:#7d849e;opacity:0.4000000059604645;isolation:isolate"/><path d="M487.2,283.8l34.1,19.8h8.6L551.4,291V272l-34.1-19.8h-8.5l-21.7,12.6Zm-1.4.8V264l22.7-13.2h9.2l35.1,20.4v20.6L530.3,305h-9.4Z" style="fill:#555a6f"/><path d="M593.7,268.9l3.6,8.5" style="fill:none;stroke:#d7e0ff;stroke-linecap:round;stroke-linejoin:round;stroke-width:0.699999988079071px;stroke-dasharray:2.799999952316284"/><path d="M258.5,138.6l48.2-28h22.9l267.7,153v14.2l-45.8,26.6V332" style="fill:none;stroke:#d7e0ff;stroke-linecap:round;stroke-linejoin:round;stroke-width:0.699999988079071px;stroke-dasharray:2.799999952316284"/><path d="M552.4,332V304.1H527.1" style="fill:none;stroke:#d7e0ff;stroke-linecap:round;stroke-linejoin:round;stroke-width:0.699999988079071px;stroke-dasharray:2.799999952316284"/><path d="M525.8,332V304.3L259.7,151.9" style="fill:none;stroke:#d7e0ff;stroke-linecap:round;stroke-linejoin:round;stroke-width:0.699999988079071px;stroke-dasharray:2.799999952316284"/><path d="M264.6,130.1v12.8L528.5,293.1h22L593.7,268V255.2" style="fill:none;stroke:#d7e0ff;stroke-linecap:round;stroke-linejoin:round;stroke-width:0.699999988079071px;stroke-dasharray:2.799999952316284"/><path d="M263.4,143.4l-3.6,8.5M527.1,304.1l1.2-9.7" style="fill:none;stroke:#d7e0ff;stroke-linecap:round;stroke-linejoin:round;stroke-width:0.699999988079071px;stroke-dasharray:2.799999952316284"/><path d="M551.3,294.4l1.2,9.7m-25.4,0,1.2-9.7" style="fill:none;stroke:#d7e0ff;stroke-linecap:round;stroke-linejoin:round;stroke-width:0.699999988079071px;stroke-dasharray:2.799999952316284"/><path d="M263.4,130.4l43.7-25.1h22.8L593.4,255.8l4.5,7.4v42l-46.3,27.3H525.8L259.2,180V137.5Z" style="fill:none;stroke:#999fb6;stroke-linecap:round;stroke-linejoin:round"/><path d="M330.2,104.6l-.2,27.2,268.6,154" style="fill:none;stroke:#d7e0ff;stroke-linecap:round;stroke-linejoin:round;stroke-width:0.699999988079071px;stroke-dasharray:2.799999952316284"/><path d="M259.7,161.6,307,131.8V104.6" style="fill:none;stroke:#d7e0ff;stroke-linecap:round;stroke-linejoin:round;stroke-width:0.699999988079071px;stroke-dasharray:2.799999952316284"/><path d="M308.2,131.9h23" style="fill:none;stroke:#d7e0ff;stroke-linecap:round;stroke-linejoin:round;stroke-width:0.699999988079071px;stroke-dasharray:2.799999952316284"/><polygon points="552.5 333.2 603.4 333.2 603.4 287.1 599.2 287.1 599.2 306 552.5 333.2" style="opacity:0.10401785373687744;isolation:isolate;fill:url(#aa)"/><g style="opacity:0.4000000059604645"><polygon points="10.6 320.9 278 474 303.6 474 350.6 445.8 350.6 427.6 81.4 273.3 59 273.3 10.6 303.4 10.6 320.9" style="fill:url(#ab)"/></g><polygon points="42.3 326.6 88.7 326.6 88.7 282.9 83.3 282.9 42.3 282.9 42.3 326.6" style="opacity:0.20401786267757416;isolation:isolate;fill:url(#ac)"/><polygon points="41.6 325.5 90.1 298.2 90.1 286.2 42.2 313 23.9 300.4 23.5 313.8 41.6 325.5" style="fill:#e3ebf9"/><g style="mask:url(#ad)"><polygon points="90.5 285 42.3 312 42.3 327.2 90.1 298.5 90.5 285" style="fill:#b8c4d9"/></g><polygon points="23.9 300.4 42.2 313 90.2 286.1 70.6 274 23.9 300.4" style="fill:url(#ae)"/><path d="M49.6,297.5A2.5,2.5,0,0,1,51,299q.2.8-.9,1.4a4.3,4.3,0,0,1-2.5.5,6.2,6.2,0,0,1-2.7-.8l-1.2-.7a2.6,2.6,0,0,1-1.4-1.5q-.2-.8.8-1.4a4.4,4.4,0,0,1,2.5-.5,6.2,6.2,0,0,1,2.7.8Zm-2.2-.2a4.4,4.4,0,0,0-1.8-.6,2.6,2.6,0,0,0-1.6.3q-.6.4-.4.9a2.1,2.1,0,0,0,1,1l1.2.7a4.6,4.6,0,0,0,1.8.6,2.5,2.5,0,0,0,1.5-.2q.6-.4.5-.9a2,2,0,0,0-1-1Zm3.9-2.2-.4.2-.3.3a.4.4,0,0,0,.1.4l3.5,2-.9.5-5-2.8.9-.5.8.4a.8.8,0,0,1-.2-.6.6.6,0,0,1,.4-.5h.4Zm7.2.4-.5-.2-.4-.2a.9.9,0,0,1,.1.6.9.9,0,0,1-.5.5,2.6,2.6,0,0,1-1.4.3,3.2,3.2,0,0,1-1.5-.4q-.7-.4-.7-.9t1-1l.7-.4-.4-.2-.8-.2-.8.2q-.3.2-.3.4t.3.4l-.9.5h0a.9.9,0,0,1-.6-.8q0-.5.8-1a3.3,3.3,0,0,1,1.6-.4,3.4,3.4,0,0,1,1.7.5l2.2,1.3.6.3.7.3Zm-2,.2a.8.8,0,0,0,.4-.5.5.5,0,0,0-.1-.5l-.7-.4-.8.4q-.4.2-.4.5a.6.6,0,0,0,.3.5l.6.2Zm4.7-2.6a.5.5,0,0,0,.3-.4q0-.3-.4-.5l.9-.5h0a1.2,1.2,0,0,1,.7,1,1.1,1.1,0,0,1-.7,1,3.5,3.5,0,0,1-2.1.4,5.8,5.8,0,0,1-2.3-.7h-.2a2.6,2.6,0,0,1-1.3-1.3q-.2-.7.7-1.2a3.2,3.2,0,0,1,1.7-.4,3.7,3.7,0,0,1,1.8.5h0l-.9.5-.9-.3-.8.2q-.5.3-.3.7a2.6,2.6,0,0,0,.9.8h.2l1.4.5A1.7,1.7,0,0,0,61.3,293Zm4.2-1.5-.9.5L57.3,288l.9-.5Zm-2.4-4.5a3.1,3.1,0,0,1,1.9-.4,5.3,5.3,0,0,1,2.1.7l.6.3-2.6,1.5h0l1.3.4a1.9,1.9,0,0,0,1.2-.2l.6-.4a1,1,0,0,0,.2-.5l1,.2a1,1,0,0,1-.2.6l-.7.6a3.6,3.6,0,0,1-2.1.4,5.5,5.5,0,0,1-2.3-.7h-.2a2.5,2.5,0,0,1-1.3-1.3Q62.3,287.6,63.1,287.1Zm.9.5q-.4.2-.3.5a1.3,1.3,0,0,0,.6.6h0l1.6-.9h-.1l-1-.3A1.4,1.4,0,0,0,64.1,287.6Z" style="fill:url(#af)"/><polygon points="24.3 300.1 42.3 312.1 89.9 285.4 90.1 285.5 90.3 285.9 90.3 286.1 42.2 313 23.9 300.8 23.8 300.5 24 300.1 24.3 300.1" style="fill:#7d849e;opacity:0.4000000059604645;isolation:isolate"/><polygon points="41.8 318.1 90.3 291.6 90.3 292.5 90.3 292.6 41.9 319 41.8 319 22.8 306.8 22.7 306.6 22.9 306.2 23.2 306.1 41.8 318.1" style="fill:#7d849e;opacity:0.4000000059604645;isolation:isolate"/><path d="M90.1,297.9,42.3,324.8,23.9,313.4V300.4L70.3,274l19.8,12Zm1.3.8V285.3L70.3,272.4,22.5,299.8v14.3l19.7,12.3Z" style="fill:#555a6f"/><polygon points="82.3 349.9 128.7 349.9 128.7 306.2 123.3 306.2 82.3 306.2 82.3 349.9" style="opacity:0.20401786267757416;isolation:isolate;fill:url(#ag)"/><polygon points="81.6 348.8 130.1 321.4 130.1 309.4 82.3 336.3 64 323.7 63.6 337.1 81.6 348.8" style="fill:#e3ebf9"/><g style="mask:url(#ah)"><polygon points="130.5 308.3 82.3 335.3 82.3 350.4 130.2 321.7 130.5 308.3" style="fill:#b8c4d9"/></g><polygon points="64 323.7 82.3 336.3 130.2 309.3 110.6 297.3 64 323.7" style="fill:url(#ai)"/><path d="M82.6,320.5l-1.8,1,6,3.4-1,.5-6-3.4-1.8,1-.9-.5,4.5-2.6Zm8.2,2.3a3.7,3.7,0,0,1-2.2.4,5.7,5.7,0,0,1-2.4-.7h-.2a2.6,2.6,0,0,1-1.3-1.4q-.2-.7.6-1.2a3.2,3.2,0,0,1,2-.4,5.5,5.5,0,0,1,2.2.7l.6.4L87.4,322h0l1.3.4a1.9,1.9,0,0,0,1.2-.2l.6-.5a1,1,0,0,0,.2-.5l1.1.2a1,1,0,0,1-.2.6Zm-4.5-2.4q-.4.2-.3.5a1.4,1.4,0,0,0,.6.6h0l1.7-1h-.1l-1-.3A1.4,1.4,0,0,0,86.3,320.3Zm4.9-2.5-.4.2-.3.3a.5.5,0,0,0,.1.4l3.6,2-1,.5L88,318.4l.9-.5.8.4a.8.8,0,0,1-.2-.6.6.6,0,0,1,.4-.5h.4Zm7.4.4-.5-.2-.4-.2a.9.9,0,0,1,.1.6.9.9,0,0,1-.5.6,2.7,2.7,0,0,1-1.4.4,3.3,3.3,0,0,1-1.5-.4q-.7-.4-.7-.9t1-1l.8-.4-.5-.3-.8-.2-.8.2q-.3.2-.3.4t.3.4l-.9.5h0a.9.9,0,0,1-.6-.9q0-.5.8-1a3.4,3.4,0,0,1,1.7-.4,3.5,3.5,0,0,1,1.8.5l2.3,1.3.6.3.7.3Zm-2,.2a.8.8,0,0,0,.4-.5.5.5,0,0,0-.1-.5l-.8-.4-.8.4q-.4.2-.4.5a.6.6,0,0,0,.3.5l.6.2Zm1.2-2.6a3.5,3.5,0,0,1-1.5-1.4q-.3-.7.5-1.1l.8-.3h1l-2.8-1.6,1-.5,7.4,4.2-.8.4-.8-.3a.7.7,0,0,1,.1.6,1,1,0,0,1-.5.5,3.1,3.1,0,0,1-1.9.3,6.1,6.1,0,0,1-2.3-.8Zm1.1-.5,1.4.5a1.7,1.7,0,0,0,1.2-.2l.4-.4a.6.6,0,0,0-.1-.5l-2.2-1.3h-.8l-.7.2q-.5.3-.2.7a3,3,0,0,0,1.1.9Zm8.8-2.3-.5-.2-.4-.2a.9.9,0,0,1,.1.6.9.9,0,0,1-.5.6,2.7,2.7,0,0,1-1.4.4,3.3,3.3,0,0,1-1.5-.4q-.7-.4-.7-.9t1-1l.8-.4-.5-.3-.8-.2-.8.2q-.3.2-.3.4t.3.4l-.9.5h0a.9.9,0,0,1-.6-.9q0-.5.8-1a3.4,3.4,0,0,1,1.7-.4,3.5,3.5,0,0,1,1.8.5l2.3,1.3.6.3.7.3Zm-2,.2a.8.8,0,0,0,.4-.5.5.5,0,0,0-.1-.5l-.8-.4-.8.4q-.4.2-.4.5a.6.6,0,0,0,.3.5l.6.2Zm-1.3-5.6,1.2.7.8-.4.9.5-.8.4,2.8,1.6.6.2h.7l.9.4-.2.2-.3.2a2.2,2.2,0,0,1-1.2.3,3.4,3.4,0,0,1-1.5-.5l-2.8-1.6-.7.4-.9-.5.7-.4-1.2-.7Zm4.5-1.2a3.4,3.4,0,0,1,1.7-.4,3.5,3.5,0,0,1,1.8.5l2.3,1.3.6.3.7.3-1,.6-.5-.2-.4-.2a.9.9,0,0,1,.1.6.9.9,0,0,1-.5.6,2.7,2.7,0,0,1-1.4.4,3.3,3.3,0,0,1-1.5-.4q-.7-.4-.7-.9t1-1l.8-.4-.5-.3-.8-.2-.8.2q-.3.2-.3.4t.3.4l-.9.5h0a.9.9,0,0,1-.6-.9Q108.1,306.9,108.8,306.5Zm3.6,1.3-.8.4q-.4.2-.4.5a.6.6,0,0,0,.3.5l.6.2.6-.2a.8.8,0,0,0,.4-.5.5.5,0,0,0-.1-.5Z" style="fill:url(#aj)"/><polygon points="64.3 323.3 82.3 335.4 129.9 308.7 130.1 308.7 130.4 309.2 130.3 309.4 82.3 336.3 63.9 324 63.8 323.8 64.1 323.4 64.3 323.3" style="fill:#7d849e;opacity:0.4000000059604645;isolation:isolate"/><polygon points="81.9 341.3 130.4 314.9 130.4 315.7 130.3 315.8 82 342.2 81.8 342.2 62.8 330 62.7 329.8 63 329.4 63.2 329.3 81.9 341.3" style="fill:#7d849e;opacity:0.4000000059604645;isolation:isolate"/><path d="M130.2,321.2,82.3,348.1,64,336.6V323.7l46.4-26.4,19.8,12Zm1.3.8V308.5l-21.1-12.8L62.6,323v14.3l19.7,12.3Z" style="fill:#555a6f"/><polygon points="122.3 373.1 168.7 373.1 168.7 329.4 163.3 329.4 122.3 329.4 122.3 373.1" style="opacity:0.20401786267757416;isolation:isolate;fill:url(#ak)"/><polygon points="121.6 372 170.1 344.7 170.2 332.7 122.3 359.5 104 346.9 103.6 360.3 121.6 372" style="fill:#e3ebf9"/><g style="mask:url(#al)"><polygon points="170.5 331.5 122.4 358.5 122.4 373.7 170.2 345 170.5 331.5" style="fill:#b8c4d9"/></g><polygon points="104 346.9 122.3 359.5 170.2 332.6 150.6 320.5 104 346.9" style="fill:url(#am)"/><path d="M129,346.8l-1,.6-6.9-4.1,1-.6Zm-3.1-4.3.7.4a.8.8,0,0,1,0-.7,1.2,1.2,0,0,1,.5-.6l1-.3h1.1a.9.9,0,0,1-.1-.7,1,1,0,0,1,.5-.6,2.5,2.5,0,0,1,1.6-.3,5.1,5.1,0,0,1,2,.7l3.1,1.8-1,.6-3.1-1.8-1.1-.5-.8.2a.6.6,0,0,0-.3.4.7.7,0,0,0,.2.5h.2l3.4,2-1,.6-3.1-1.8-1.1-.4-.9.2-.4.4a.5.5,0,0,0,.1.4l3.8,2.2-1,.6L125,343Zm12.8-4.3a3,3,0,0,1,1.4,1.3q.2.7-.5,1.1l-.8.3h-.9l2.5,1.5-1,.6-7.1-4.2.8-.5.7.3a.8.8,0,0,1-.1-.6,1.1,1.1,0,0,1,.5-.5,2.9,2.9,0,0,1,2-.3,6.8,6.8,0,0,1,2.4.9Zm-1.1.5a4.9,4.9,0,0,0-1.5-.6,1.7,1.7,0,0,0-1.2.1.7.7,0,0,0-.4.4.6.6,0,0,0,.1.5l2.3,1.4h.8l.7-.2q.5-.3.3-.7a2.2,2.2,0,0,0-.9-.8Zm6.9-1.1-.5-.2-.4-.2a.9.9,0,0,1-.4,1.3,2.6,2.6,0,0,1-1.4.4,3.1,3.1,0,0,1-1.5-.5q-.7-.4-.7-1t1-1.1l.8-.4-.5-.3-.8-.3-.8.2q-.3.2-.3.4t.3.4l-.9.6h0a1,1,0,0,1-.6-.9q0-.6.8-1a3.2,3.2,0,0,1,1.7-.5,3.4,3.4,0,0,1,1.8.5l2.3,1.4.6.3.7.3Zm-2,.2a.9.9,0,0,0,.4-.5.6.6,0,0,0-.1-.5l-.8-.5-.8.5q-.4.3-.4.5a.6.6,0,0,0,.3.5l.6.2Zm4.9-1.9-1,.6L139,332l1-.6Zm-2.4-4.8a3.2,3.2,0,0,1,1.7-.5,3.4,3.4,0,0,1,1.8.5l2.3,1.4.6.3.7.3-1,.6-.5-.2-.4-.2a.9.9,0,0,1-.4,1.3,2.6,2.6,0,0,1-1.4.4,3.1,3.1,0,0,1-1.5-.5q-.7-.4-.7-1t1-1.1l.8-.4-.5-.3-.8-.3-.8.2q-.3.2-.3.4t.3.4l-.9.6h0a1,1,0,0,1-.6-.9Q144.2,331.5,145,331.1Zm3.6,1.3-.8.5q-.4.3-.4.5a.6.6,0,0,0,.3.5l.6.2.6-.2a.9.9,0,0,0,.4-.5.6.6,0,0,0-.1-.5Z" style="fill:url(#an)"/><polygon points="104.3 346.6 122.4 358.6 169.9 331.9 170.2 332 170.4 332.4 170.4 332.6 122.3 359.5 103.9 347.2 103.9 347 104.1 346.6 104.3 346.6" style="fill:#7d849e;opacity:0.4000000059604645;isolation:isolate"/><polygon points="121.9 364.6 170.4 338.1 170.4 338.9 170.3 339.1 122 365.5 121.8 365.5 102.8 353.3 102.8 353.1 103 352.7 103.2 352.6 121.9 364.6" style="fill:#7d849e;opacity:0.4000000059604645;isolation:isolate"/><path d="M170.2,344.4l-47.9,26.9L104,359.9V346.9l46.4-26.4,19.8,12Zm1.3.8V331.7l-21.1-12.8-47.8,27.4v14.3l19.7,12.3Z" style="fill:#555a6f"/><polygon points="163.7 396.3 210.1 396.3 210.1 352.7 204.7 352.7 163.7 352.7 163.7 396.3" style="opacity:0.20401786267757416;isolation:isolate;fill:url(#ao)"/><polygon points="163 395.3 211.5 367.9 211.5 355.9 163.6 382.8 145.3 370.2 144.9 383.6 163 395.3" style="fill:#e3ebf9"/><g style="mask:url(#ap)"><polygon points="211.8 354.8 163.7 381.7 163.7 396.9 211.5 368.2 211.8 354.8" style="fill:#b8c4d9"/></g><polygon points="145.3 370.2 163.6 382.8 211.5 355.8 191.9 343.8 145.3 370.2" style="fill:url(#aq)"/><path d="M169.3,368.1h0l-3.6-3.9,1.2-.7,6.9,3.9-1,.5-4.9-2.8h0l3.3,3.7-.7.4-6.6-1.9h0l5,2.8-1,.5-6.9-3.9,1.3-.7Zm5-3.4.6.2h0l-2.6-2.6,1.1-.6,4.1,4.3a1.6,1.6,0,0,1,.4.8q.1.4-.5.7h-.6l-.8-.6h.3q.3-.1.2-.4l-.2-.4-.3-.4-6.6-2,1-.6Zm6.1-3.1-1-.3-1.2.2H178a8.3,8.3,0,0,1-2.2.4,3.6,3.6,0,0,1-1.8-.5q-.8-.5-.8-1.1t.9-1.1a4.3,4.3,0,0,1,4.1,0h0l-.9.5a2.4,2.4,0,0,0-1.2-.3,2.2,2.2,0,0,0-1.1.3q-.5.3-.5.6t.4.5l.9.2,1.2-.2h.2a7.4,7.4,0,0,1,2.2-.3,3.8,3.8,0,0,1,1.8.5q.9.5.8,1.1t-1,1.1a4.6,4.6,0,0,1-2.1.6,3.9,3.9,0,0,1-2.2-.5h0l.9-.5a2.4,2.4,0,0,0,1.3.3,2.6,2.6,0,0,0,1.2-.3q.5-.3.5-.6T180.4,361.6Zm5.4-4.3.9.6.5.7H189v.8h-1.9l-.3.5-.6.4a4.4,4.4,0,0,1-2.5.5,6.3,6.3,0,0,1-2.7-.8l-1.2-.7a2.6,2.6,0,0,1-1.4-1.5q-.2-.8.9-1.4a4.5,4.5,0,0,1,2.5-.5,6.3,6.3,0,0,1,2.7.8Zm-2.2-.2a4.5,4.5,0,0,0-1.8-.6,2.6,2.6,0,0,0-1.6.3q-.6.4-.5.9a2.1,2.1,0,0,0,1,1l1.2.7a4.7,4.7,0,0,0,1.8.6,2.5,2.5,0,0,0,1.6-.3q.7-.4.5-.9a2.1,2.1,0,0,0-1-1Zm6.2,0,2.7-1.5.9.5-3.7,2.1-6.9-3.9,1-.5Z" style="fill:url(#ar)"/><polygon points="145.7 369.8 163.7 381.9 211.3 355.2 211.5 355.2 211.7 355.7 211.7 355.9 163.6 382.8 145.2 370.5 145.2 370.3 145.4 369.9 145.7 369.8" style="fill:#7d849e;opacity:0.4000000059604645;isolation:isolate"/><polygon points="163.2 387.8 211.7 361.4 211.7 362.2 211.7 362.3 163.3 388.7 163.2 388.7 144.2 376.5 144.1 376.3 144.3 375.9 144.6 375.8 163.2 387.8" style="fill:#7d849e;opacity:0.4000000059604645;isolation:isolate"/><path d="M211.5,367.7l-47.9,26.9-18.3-11.5V370.2l46.4-26.4,19.8,12Zm1.3.8V355l-21.1-12.8-47.8,27.4v14.3l19.7,12.3Z" style="fill:#555a6f"/><polygon points="206.3 419.6 252.7 419.6 252.7 375.9 247.3 375.9 206.3 375.9 206.3 419.6" style="opacity:0.20401786267757416;isolation:isolate;fill:url(#as)"/><polygon points="205.6 418.5 254.1 391.2 254.1 379.2 206.2 406 188 393.4 187.5 406.8 205.6 418.5" style="fill:#e3ebf9"/><g style="mask:url(#at)"><polygon points="254.5 378 206.3 405 206.3 420.2 254.1 391.5 254.5 378" style="fill:#b8c4d9"/></g><polygon points="188 393.4 206.2 406 254.2 379.1 234.6 367 188 393.4" style="fill:url(#au)"/><path d="M205.7,396.8l-.9-.3-1.2.2h-.2a7.9,7.9,0,0,1-2.2.4,3.4,3.4,0,0,1-1.8-.5,1.3,1.3,0,0,1-.8-1.1q0-.6.9-1.2a4.1,4.1,0,0,1,4.1,0h0l-.9.5a2.3,2.3,0,0,0-1.2-.3,2.1,2.1,0,0,0-1.1.3q-.5.3-.5.6t.4.6l.9.2,1.2-.2h.2a7,7,0,0,1,2.2-.3,3.6,3.6,0,0,1,1.8.5q.8.5.8,1.1t-1,1.2a4.4,4.4,0,0,1-2.1.6,3.7,3.7,0,0,1-2.2-.6h0l.9-.5a2.3,2.3,0,0,0,1.3.3,2.4,2.4,0,0,0,1.2-.3q.5-.3.5-.6T205.7,396.8Zm5.4-4.4.9.7a2.1,2.1,0,0,1,.5.7h1.8v.8h-1.8l-.3.5-.6.5a4.2,4.2,0,0,1-2.5.5,6.1,6.1,0,0,1-2.7-.8l-1.2-.7a2.7,2.7,0,0,1-1.4-1.6q-.2-.9.8-1.5a4.3,4.3,0,0,1,2.5-.5,6,6,0,0,1,2.7.8Zm-2.2-.2a4.3,4.3,0,0,0-1.8-.6,2.5,2.5,0,0,0-1.6.3q-.6.4-.4.9a2.2,2.2,0,0,0,1,1l1.2.7a4.5,4.5,0,0,0,1.8.6,2.4,2.4,0,0,0,1.5-.3q.7-.4.5-.9a2.1,2.1,0,0,0-1-1.1Zm6.1,0,2.7-1.6.9.5-3.6,2.1-6.8-4,1-.6Zm7.6-5.5-.9-.3-1.2.2h-.2a7.9,7.9,0,0,1-2.2.4,3.4,3.4,0,0,1-1.8-.5,1.3,1.3,0,0,1-.8-1.1q0-.6.9-1.2a4.1,4.1,0,0,1,4.1,0h0l-.9.5a2.3,2.3,0,0,0-1.2-.3,2.1,2.1,0,0,0-1.1.3q-.5.3-.5.6t.4.6l.9.2,1.2-.2h.2a7,7,0,0,1,2.2-.3,3.6,3.6,0,0,1,1.8.5q.8.5.8,1.1t-1,1.2a4.4,4.4,0,0,1-2.1.6,3.7,3.7,0,0,1-2.2-.6h0l.9-.5a2.3,2.3,0,0,0,1.3.3,2.4,2.4,0,0,0,1.2-.3q.5-.3.5-.6T222.6,386.7Zm5.5-1.1a3.5,3.5,0,0,1-2.1.4,5.4,5.4,0,0,1-2.3-.8h-.2a2.6,2.6,0,0,1-1.3-1.4,1,1,0,0,1,.6-1.2,3,3,0,0,1,1.9-.4,5.2,5.2,0,0,1,2.1.7l.6.4-2.6,1.6h0l1.3.4a1.8,1.8,0,0,0,1.2-.2l.6-.5a1.1,1.1,0,0,0,.2-.5l1.1.3a1.1,1.1,0,0,1-.2.6Zm-4.4-2.5q-.4.2-.3.5a1.4,1.4,0,0,0,.6.7h0l1.7-1h-.1l-1-.4A1.4,1.4,0,0,0,223.7,383.1Zm4.8-2.6-.4.2-.3.4a.5.5,0,0,0,.1.4l3.5,2.1-1,.6-5-3,.9-.5.8.4a.9.9,0,0,1-.2-.6.7.7,0,0,1,.4-.5h.4Zm4.6,0,.5.2h0l-.3-.3-2.5-2.5,1-.6,3.5,3.9-.8.5-6.6-2.1,1-.6Zm6.1-1.5a3.5,3.5,0,0,1-2.1.4,5.4,5.4,0,0,1-2.3-.8h-.2a2.6,2.6,0,0,1-1.3-1.4,1,1,0,0,1,.6-1.2,3,3,0,0,1,1.9-.4,5.2,5.2,0,0,1,2.1.7l.6.4-2.6,1.6h0l1.3.4a1.8,1.8,0,0,0,1.2-.2l.6-.5a1.1,1.1,0,0,0,.2-.5l1.1.3a1.1,1.1,0,0,1-.2.6Zm-4.4-2.5q-.4.2-.3.5a1.4,1.4,0,0,0,.6.7h0l1.7-1h-.1l-1-.4A1.4,1.4,0,0,0,234.8,376.5Zm4.8-2.6-.4.2-.3.4a.5.5,0,0,0,.1.4l3.5,2.1-1,.6-5-3,.9-.5.8.4a.9.9,0,0,1-.2-.6.7.7,0,0,1,.4-.5h.4Z" style="fill:url(#av)"/><polygon points="188.3 393 206.3 405.1 253.9 378.4 254.1 378.5 254.4 378.9 254.3 379.1 206.2 406 187.9 393.7 187.8 393.5 188.1 393.1 188.3 393" style="fill:#7d849e;opacity:0.4000000059604645;isolation:isolate"/><polygon points="205.9 411.1 254.4 384.6 254.4 385.4 254.3 385.6 205.9 412 205.8 412 186.8 399.8 186.7 399.6 187 399.1 187.2 399.1 205.9 411.1" style="fill:#7d849e;opacity:0.4000000059604645;isolation:isolate"/><path d="M254.1,390.9l-47.9,26.9L188,406.4V393.4L234.3,367l19.8,12Zm1.3.8V378.2l-21.1-12.8-47.8,27.4v14.3l19.7,12.3Z" style="fill:#555a6f"/><polygon points="246.3 442.8 292.7 442.8 292.7 399.2 287.3 399.2 246.3 399.2 246.3 442.8" style="opacity:0.20401786267757416;isolation:isolate;fill:url(#aw)"/><polygon points="245.6 441.8 294.1 414.4 294.1 402.4 246.3 429.2 228 416.7 227.6 430.1 245.6 441.8" style="fill:#e3ebf9"/><g style="mask:url(#ax)"><polygon points="294.5 401.3 246.3 428.2 246.3 443.4 294.2 414.7 294.5 401.3" style="fill:#b8c4d9"/></g><polygon points="228 416.7 246.3 429.2 294.2 402.3 274.6 390.3 228 416.7" style="fill:url(#ay)"/><path d="M247.6,418.6a1.1,1.1,0,0,1,0,.9,2.3,2.3,0,0,1-1,1,4.3,4.3,0,0,1-2.4.5,5.7,5.7,0,0,1-2.7-.8l-1.4-.8a2.5,2.5,0,0,1-1.4-1.6q-.1-.8.8-1.4a4,4,0,0,1,2.2-.6,4.1,4.1,0,0,1,2.1.6h0l-.9.5a2.6,2.6,0,0,0-1.2-.4,2.1,2.1,0,0,0-1.2.3.7.7,0,0,0-.4.9,2,2,0,0,0,1,1l1.4.9a4.2,4.2,0,0,0,1.7.6,2.4,2.4,0,0,0,1.5-.3l.6-.5a.6.6,0,0,0,.1-.4l-1.4-.8-1.2.7-.9-.5,2.2-1.3Zm.1-3.7-.4.2-.3.4a.5.5,0,0,0,.1.4l3.5,2.1-1,.6-5.1-3,.9-.5.8.4a.9.9,0,0,1-.2-.6.7.7,0,0,1,.4-.5h.4Zm6.6,1a3.5,3.5,0,0,1-2.2.4,5.4,5.4,0,0,1-2.3-.8h-.2a2.6,2.6,0,0,1-1.3-1.4,1.1,1.1,0,0,1,.6-1.2,3,3,0,0,1,1.9-.4,5.2,5.2,0,0,1,2.1.7l.6.4-2.6,1.6h0l1.3.4a1.8,1.8,0,0,0,1.2-.2l.6-.5a1.1,1.1,0,0,0,.2-.5l1.1.3a1.1,1.1,0,0,1-.2.6Zm-4.4-2.5q-.4.2-.3.5a1.4,1.4,0,0,0,.6.7h0l1.7-1h-.1l-1-.4A1.4,1.4,0,0,0,249.8,413.4Zm8.7,0a3.5,3.5,0,0,1-2.2.4,5.4,5.4,0,0,1-2.3-.8h-.2a2.6,2.6,0,0,1-1.3-1.4,1.1,1.1,0,0,1,.6-1.2,3,3,0,0,1,1.9-.4,5.2,5.2,0,0,1,2.1.7l.6.4-2.6,1.6h0l1.3.4a1.8,1.8,0,0,0,1.2-.2l.6-.5a1.1,1.1,0,0,0,.2-.5l1.1.3a1.1,1.1,0,0,1-.2.6Zm-4.4-2.5q-.4.2-.3.5a1.4,1.4,0,0,0,.6.7h0l1.7-1h-.1l-1-.4A1.4,1.4,0,0,0,254,410.9Zm2.6-2.5.8.4a.9.9,0,0,1-.1-.7,1,1,0,0,1,.5-.6,2.5,2.5,0,0,1,1.5-.3,4.5,4.5,0,0,1,1.9.7l3.1,1.9-1,.6-3.1-1.9-1-.4-.8.2-.4.4a.5.5,0,0,0,0,.4l3.7,2.2-1,.6-5.1-3Zm10.1-2.8a2.9,2.9,0,0,1,1.3,1.3q.2.7-.5,1.1l-.8.3h-.9l2.5,1.5-1,.6-7-4.2.8-.5.7.3a.8.8,0,0,1,0-.6,1,1,0,0,1,.5-.5,2.9,2.9,0,0,1,2-.3,6.7,6.7,0,0,1,2.4.9Zm-1,.5-1.5-.6a1.7,1.7,0,0,0-1.2.1.7.7,0,0,0-.4.4.6.6,0,0,0,.1.4l2.3,1.4h.7l.7-.2q.5-.3.3-.7a2.1,2.1,0,0,0-.9-.8Zm5.3-.2-1,.6-7.3-4.3,1-.6Zm3-2.7a.8.8,0,0,1,.1.7,1,1,0,0,1-.5.6,2.6,2.6,0,0,1-1.6.3,5.1,5.1,0,0,1-2-.8l-3-1.8,1-.6,3,1.8,1.2.5.8-.2.4-.4a.5.5,0,0,0-.1-.5l-3.7-2.2,1-.6,5.1,3-.8.5Zm-1.5-4.2.7.4a.8.8,0,0,1,0-.6,1.2,1.2,0,0,1,.5-.5l.9-.3h1.1a.9.9,0,0,1-.1-.7,1,1,0,0,1,.5-.6,2.4,2.4,0,0,1,1.5-.3,5,5,0,0,1,2,.7l3,1.8-1,.6-3-1.8-1.1-.4-.8.2a.6.6,0,0,0-.3.4.7.7,0,0,0,.2.5h.2l3.3,2-1,.6-3-1.8-1.1-.4-.8.2-.4.4a.5.5,0,0,0,.1.4l3.7,2.2-1,.6-5.1-3Z" style="fill:url(#az)"/><polygon points="228.3 416.3 246.4 428.4 293.9 401.7 294.1 401.7 294.4 402.1 294.3 402.4 246.3 429.2 227.9 417 227.8 416.8 228.1 416.3 228.3 416.3" style="fill:#7d849e;opacity:0.4000000059604645;isolation:isolate"/><polygon points="245.9 434.3 294.4 407.9 294.4 408.7 294.3 408.8 246 435.2 245.8 435.2 226.8 423 226.8 422.8 227 422.4 227.2 422.3 245.9 434.3" style="fill:#7d849e;opacity:0.4000000059604645;isolation:isolate"/><path d="M294.2,414.2l-47.9,26.9L228,429.6V416.7l46.4-26.4,19.8,12Zm1.3.8V401.5l-21.1-12.8L226.6,416v14.3l19.7,12.3Z" style="fill:#555a6f"/><polygon points="286.3 466.1 332.8 466.1 332.8 422.4 327.4 422.4 286.3 422.4 286.3 466.1" style="opacity:0.20401786267757416;isolation:isolate;fill:url(#ba)"/><polygon points="285.7 465 334.1 437.7 334.2 425.7 286.3 452.5 268 439.9 267.6 453.3 285.7 465" style="fill:#e3ebf9"/><g style="mask:url(#bb)"><polygon points="334.5 424.5 286.4 451.5 286.4 466.7 334.2 438 334.5 424.5" style="fill:#b8c4d9"/></g><polygon points="268 439.9 286.3 452.5 334.2 425.6 314.6 413.5 268 439.9" style="fill:url(#bc)"/><path d="M279.9,443.5l2.6,1.5-1,.6-6.8-4,2.2-1.3a3.8,3.8,0,0,1,2.1-.5,4.2,4.2,0,0,1,2.1.6q1,.6,1,1.2t-.9,1.2Zm-.9-.5,1.2-.7q.5-.3.5-.7a1.1,1.1,0,0,0-.6-.7l-1.1-.3a1.9,1.9,0,0,0-1.1.3l-1.2.7Zm4.8-1.7a2.6,2.6,0,0,1-1.3-1.4q-.2-.7.7-1.3a3.5,3.5,0,0,1,2.2-.4,5.7,5.7,0,0,1,2.4.8h.1a2.6,2.6,0,0,1,1.3,1.4q.2.7-.7,1.3a3.5,3.5,0,0,1-2.2.4,5.7,5.7,0,0,1-2.4-.8Zm1.1-.5,1.4.6a1.7,1.7,0,0,0,1.2-.2q.5-.3.3-.7a2.4,2.4,0,0,0-1-.8h-.1l-1.4-.6a1.8,1.8,0,0,0-1.2.2q-.5.3-.3.7a2.4,2.4,0,0,0,.9.8Zm7.3-3h-.6l-.8.2h-.2l-1.7.4a2.5,2.5,0,0,1-1.4-.3,1.1,1.1,0,0,1-.6-.9q0-.5.7-1a3.3,3.3,0,0,1,1.7-.4,2.9,2.9,0,0,1,1.6.4h0l-.9.5-.7-.2-.8.2q-.3.2-.3.4a.5.5,0,0,0,.3.4h.6l.8-.2h.2l1.7-.4a2.5,2.5,0,0,1,1.4.3q.7.4.6.9t-.8,1a3.4,3.4,0,0,1-1.8.5,3.1,3.1,0,0,1-1.6-.4h0l.9-.5.9.2.8-.2q.4-.2.4-.4T292.1,437.8Zm-1.9-4.6,1.2.7.8-.4.8.5-.8.4,2.8,1.6.6.2h.7l.9.4-.2.2-.3.2a2.1,2.1,0,0,1-1.2.3,3.3,3.3,0,0,1-1.5-.5l-2.8-1.6-.6.4-.8-.5.6-.4-1.2-.7Zm5.2,1.4a3.5,3.5,0,0,1-1.5-1.4q-.3-.7.5-1.1l.9-.3h1l-.6-.4.8-.5,5.1,3q1,.6,1,1.2t-.9,1.2l-.8.3-.9.2-.7-.6.8-.2.7-.3q.5-.3.5-.6t-.6-.6l-.5-.3a.7.7,0,0,1,0,.5l-.5.5a2.9,2.9,0,0,1-1.9.3,5.8,5.8,0,0,1-2.2-.8Zm1-.5,1.3.5a1.6,1.6,0,0,0,1.1-.2l.4-.4a.6.6,0,0,0-.1-.5l-2.2-1.3h-.8l-.7.2q-.5.3-.2.7a3,3,0,0,0,1,.9Zm4.2-4.4-.4.2-.3.4a.5.5,0,0,0,.1.4l3.5,2.1-1,.6-5.1-3,.9-.5.8.4a.9.9,0,0,1-.2-.6.6.6,0,0,1,.4-.5h.4Zm6.6,1a3.6,3.6,0,0,1-2.2.4,5.5,5.5,0,0,1-2.3-.8h-.2a2.6,2.6,0,0,1-1.3-1.4q-.2-.7.6-1.2a3.1,3.1,0,0,1,1.9-.4,5.3,5.3,0,0,1,2.1.7l.6.4-2.6,1.5h0l1.3.4a1.8,1.8,0,0,0,1.2-.2l.6-.5a1,1,0,0,0,.2-.5l1.1.3a1.1,1.1,0,0,1-.2.6Zm-4.4-2.5q-.4.2-.3.5a1.4,1.4,0,0,0,.6.7h0l1.7-1h-.1l-1-.3A1.4,1.4,0,0,0,302.8,428.2Zm8.1-1.8-1-.3-1.2.2h-.2a8,8,0,0,1-2.2.4,3.4,3.4,0,0,1-1.8-.5q-.8-.5-.8-1.1t.9-1.1a4.2,4.2,0,0,1,4.1,0h0l-.9.5a2.3,2.3,0,0,0-1.2-.3,2.1,2.1,0,0,0-1.1.3q-.5.3-.5.6t.4.6l.9.2,1.2-.2h.2a7.1,7.1,0,0,1,2.2-.3,3.7,3.7,0,0,1,1.8.5q.8.5.8,1.1t-1,1.2a4.5,4.5,0,0,1-2.1.6,3.8,3.8,0,0,1-2.2-.5h0l.9-.5a2.3,2.3,0,0,0,1.3.3,2.5,2.5,0,0,0,1.2-.3q.5-.3.5-.6T310.9,426.4Zm5.4-4.4.9.6a2.1,2.1,0,0,1,.5.7h1.8v.8h-1.8l-.3.5-.6.4a4.2,4.2,0,0,1-2.5.5,6.2,6.2,0,0,1-2.7-.8l-1.2-.7a2.7,2.7,0,0,1-1.4-1.6q-.2-.9.8-1.5a4.4,4.4,0,0,1,2.5-.5,6.1,6.1,0,0,1,2.7.8Zm-2.2-.2a4.4,4.4,0,0,0-1.8-.6,2.5,2.5,0,0,0-1.6.3q-.6.4-.4.9a2.2,2.2,0,0,0,1,1l1.2.7a4.6,4.6,0,0,0,1.8.6,2.4,2.4,0,0,0,1.5-.3q.7-.4.5-.9a2.1,2.1,0,0,0-1-1Zm6.2,0,2.7-1.6.9.5-3.6,2.1-6.8-4,1-.6Z" style="fill:url(#bd)"/><polygon points="268.4 439.5 286.4 451.6 334 424.9 334.2 425 334.4 425.4 334.4 425.6 286.3 452.5 267.9 440.2 267.9 440 268.1 439.6 268.4 439.5" style="fill:#7d849e;opacity:0.4000000059604645;isolation:isolate"/><polygon points="285.9 457.6 334.4 431.1 334.4 431.9 334.4 432.1 286 458.5 285.9 458.4 266.9 446.3 266.8 446.1 267 445.6 267.3 445.6 285.9 457.6" style="fill:#7d849e;opacity:0.4000000059604645;isolation:isolate"/><path d="M334.2,437.4l-47.9,26.9L268,452.9V439.9l46.4-26.4,19.8,12Zm1.3.8V424.7l-21.1-12.8-47.8,27.4v14.3l19.7,12.3Z" style="fill:#555a6f"/><path d="M345.8,409.6l3.6,8.5" style="fill:none;stroke:#d7e0ff;stroke-linecap:round;stroke-linejoin:round;stroke-width:0.699999988079071px;stroke-dasharray:2.799999952316284"/><path d="M10.6,279.4l48.2-28H81.7l267.7,153v14.2l-45.8,26.6v27.5" style="fill:none;stroke:#d7e0ff;stroke-linecap:round;stroke-linejoin:round;stroke-width:0.699999988079071px;stroke-dasharray:2.799999952316284"/><path d="M304.5,472.7V444.8H279.1" style="fill:none;stroke:#d7e0ff;stroke-linecap:round;stroke-linejoin:round;stroke-width:0.699999988079071px;stroke-dasharray:2.799999952316284"/><path d="M277.8,472.7V445.1L11.8,292.7" style="fill:none;stroke:#d7e0ff;stroke-linecap:round;stroke-linejoin:round;stroke-width:0.699999988079071px;stroke-dasharray:2.799999952316284"/><path d="M16.6,270.9v12.8L280.5,433.9h22l43.3-25.2V396" style="fill:none;stroke:#d7e0ff;stroke-linecap:round;stroke-linejoin:round;stroke-width:0.699999988079071px;stroke-dasharray:2.799999952316284"/><path d="M15.4,284.2l-3.6,8.5M279.1,444.8l1.2-9.7" style="fill:none;stroke:#d7e0ff;stroke-linecap:round;stroke-linejoin:round;stroke-width:0.699999988079071px;stroke-dasharray:2.799999952316284"/><path d="M303.4,435.1l1.2,9.7m-25.4,0,1.2-9.7" style="fill:none;stroke:#d7e0ff;stroke-linecap:round;stroke-linejoin:round;stroke-width:0.699999988079071px;stroke-dasharray:2.799999952316284"/><path d="M15.5,271.1l43.7-25.1H82L345.4,396.6l4.5,7.4v42l-46.3,27.3H277.8L11.3,320.7V278.3Z" style="fill:none;stroke:#999fb6;stroke-linecap:round;stroke-linejoin:round"/><path d="M82.3,245.4l-.2,27.2,268.6,154" style="fill:none;stroke:#d7e0ff;stroke-linecap:round;stroke-linejoin:round;stroke-width:0.699999988079071px;stroke-dasharray:2.799999952316284"/><path d="M11.8,302.4,59,272.6V245.4" style="fill:none;stroke:#d7e0ff;stroke-linecap:round;stroke-linejoin:round;stroke-width:0.699999988079071px;stroke-dasharray:2.799999952316284"/><path d="M60.3,272.7h23" style="fill:none;stroke:#d7e0ff;stroke-linecap:round;stroke-linejoin:round;stroke-width:0.699999988079071px;stroke-dasharray:2.799999952316284"/><polygon points="304.6 474 355.5 474 355.5 427.8 351.2 427.8 351.2 446.8 304.6 474" style="opacity:0.10401785373687744;isolation:isolate;fill:url(#be)"/><polygon points="318.6 322.5 360.7 322.5 360.7 282.9 355.8 282.9 318.6 282.9 318.6 322.5" style="opacity:0.20401786267757416;isolation:isolate;fill:url(#bf)"/><polygon points="290.2 304.9 290.1 316.9 282.5 300.3 282.6 288.4 290.2 304.9" style="fill:#f7faff"/><polygon points="332 280.7 339.7 297 318.9 308.9 290.2 304.5 282.5 288.3 303.4 276.4 332 280.7" style="fill:url(#bg)"/><g style="mask:url(#bh)"><path d="M317.6,297.6a.3.3,0,0,1,.1.4l-.6.2h-7.4a.3.3,0,0,1-.1-.3c0-.2.3-.3.6-.3h5.5L301.5,289c-.2-.1-.2-.3,0-.5a.8.8,0,0,1,.8,0Zm5.5-3.3c.2.1.2.4,0,.5a.8.8,0,0,1-.8,0l-15.3-9.1a.3.3,0,0,1-.1-.4l.6-.2h7.1c.3,0,.5.2.5.4s-.3.3-.6.3h-5.5Z" style="stroke-width:0.5px;fill:url(#bi);stroke:url(#bj)"/></g><polygon points="339.4 297.2 339.3 309.1 318.6 321.2 318.7 309.3 339.4 297.2" style="fill:url(#bk)"/><polygon points="337.9 307 337.9 309 336.1 310 336.1 308 337.9 307" style="fill:#8494b2"/><polygon points="334.2 309 334.2 311 332.3 312 332.4 310 334.2 309" style="fill:#8494b2"/><polygon points="331.4 311 331.4 312.9 329.6 314 329.6 312 331.4 311" style="fill:#8494b2;opacity:0.3698102533817291;isolation:isolate"/><polygon points="318.6 309.3 318.5 321.2 290.2 316.8 290.2 304.8 318.6 309.3" style="fill:#d1dae8"/><polygon points="314.9 316.9 314.9 318.6 313.1 318.5 313.1 316.7 314.9 316.9" style="fill:#a0aabe"/><polygon points="311.2 316.3 311.2 318.9 309.4 318.5 309.4 316 311.2 316.3" style="fill:#a0aabe;opacity:0.43186384439468384;isolation:isolate"/><polygon points="308.4 316.1 308.4 318.6 306.6 318.3 306.6 315.8 308.4 316.1" style="fill:#a0aabe"/><polyline points="339.4 297.2 318.7 309.2 290.2 304.8 282.5 288.4" style="fill:none;stroke:#7d849e;opacity:0.40172991156578064;isolation:isolate"/><polyline points="339.4 303.8 318.7 315.8 290.2 311.4 282.5 295" style="fill:none;stroke:#7d849e;opacity:0.40172991156578064;isolation:isolate"/><path d="M319.3,309.7v11.6m-29.7-4.8V304.8" style="fill:none;stroke:#7d849e;opacity:0.40172991156578064;isolation:isolate"/><path d="M282,300.4V288.2l21.2-12.3,28.9,4.5,7.8,16.7v12.4l-21.2,12.3-28.9-4.5L282,300.6Z" style="fill:none;stroke:#555a6f;stroke-linecap:round;stroke-linejoin:round"/><polygon points="276.2 323.5 227 352.1 231.5 355.1 281.2 326.5 284.6 328.5 285.7 320.3 271.5 320.7 276.2 323.5" style="fill:#3a51c6;opacity:0.6000000238418579;isolation:isolate"/><polygon points="524.1 180.1 474.9 208.7 479.4 211.8 529.1 183.1 532.5 185.2 533.7 176.9 519.5 177.3 524.1 180.1" style="fill:#3a51c6;opacity:0.6000000238418579;isolation:isolate"/><polygon points="380.8 262.8 339.3 287.5 343.8 290.6 385.8 265.8 389.2 267.8 390.3 259.6 376.1 260 380.8 262.8" style="fill:#3a51c6;opacity:0.6000000238418579;isolation:isolate"/><path d="M458.4,27.3l5,5,5-5H497a4.2,4.2,0,0,0,4.2-4.2V4.2A4.2,4.2,0,0,0,497,0H427.5a4.2,4.2,0,0,0-4.2,4.2V23.1a4.2,4.2,0,0,0,4.2,4.2Z" style="fill:#425295"/><path d="M315,112.6l5,5,5-5h18.3a4.2,4.2,0,0,0,4.2-4.2V89.5a4.2,4.2,0,0,0-4.2-4.2H294.5a4.2,4.2,0,0,0-4.2,4.2v18.9a4.2,4.2,0,0,0,4.2,4.2Z" style="fill:#425295"/><path d="M65.8,252l5,5,5-5h41.5a4.2,4.2,0,0,0,4.2-4.2V228.9a4.2,4.2,0,0,0-4.2-4.2H22a4.2,4.2,0,0,0-4.2,4.2v18.9A4.2,4.2,0,0,0,22,252Z" style="fill:#425295"/><path d="M441.4,7.5V17.8h-4.5v1.2h11.6V17.8h-5.8V12.6h4.8V11.4h-4.8V7.5Zm11.8,4.9v1.1h7.1V12.4Zm-.9,2.1v1.1H455a7.9,7.9,0,0,1-2,2.4h-.2l.3,1,6.6-.6.6.9,1-.7a23.5,23.5,0,0,0-2.4-2.9l-.9.6.9,1.1-4.4.5a15.1,15.1,0,0,0,1.9-2.4h4.9V14.5Zm7.1-5.4v1.2h-7.3V9.1Zm-7.3,2.3h8.5V7.9h-9.7v4.4a13.7,13.7,0,0,1-1.3,6.2l.9.8a14.9,14.9,0,0,0,1.6-7Zm12.7,6.3v1.2H474V17.7h-2.5a39.3,39.3,0,0,0,1.9-6.3l-1.2-.3a38.2,38.2,0,0,1-2,6.6Zm1.6-6-1.1.3a37.6,37.6,0,0,1,1.3,4.7l1.2-.3A37.3,37.3,0,0,0,466.4,11.7Zm2.5-.9-1.1.3a46.5,46.5,0,0,1,1.1,4.8l1.2-.3A45.7,45.7,0,0,0,468.9,10.8Zm.1-3.4-1.4.2.6,1h-4.7v3.9a14.6,14.6,0,0,1-1,6l1,.9a17,17,0,0,0,1.3-6.9V9.8h9.5V8.7h-4.6Zm8.8,4.8h3v2h-3Zm-.1,3.1h3V19h1.2V15.3h3.2v1.9c0,.5-.2.8-.6.8h-1.4l.3,1.2H485a1.3,1.3,0,0,0,1.5-1.5V7.9h-9.9v6.3a7.4,7.4,0,0,1-1.2,4.2l.9.8A7.8,7.8,0,0,0,477.8,15.3Zm7.5-1.1h-3.2v-2h3.2Zm0-3.1h-3.2V9.1h3.2Zm-4.4-1.9v1.9h-3V9.1Z" style="fill:#fff"/><path d="M304.1,94.1v9.2h3.3a4.4,4.4,0,0,0,3.4-1.2,5.7,5.7,0,0,0,0-6.7,4.4,4.4,0,0,0-3.4-1.3Zm1.4,1.2h1.7a3.4,3.4,0,0,1,2.6.8,4.6,4.6,0,0,1,0,5.2,3.5,3.5,0,0,1-2.6.8h-1.7Zm7-1.2,2.6,9.2h1.5l1.9-7.1h.1l1.9,7.1h1.5l2.7-9.2H323l-1.8,7.2h-.1l-1.9-7.2h-1.5l-1.9,7.2h-.1l-1.8-7.2Zm16.3-.2a4.1,4.1,0,0,1,2.5.7,2.9,2.9,0,0,1,1.1,2.2H331a2,2,0,0,0-.7-1.3,2.6,2.6,0,0,0-1.6-.4,2.9,2.9,0,0,0-1.4.3,1,1,0,0,0-.6,1,1.1,1.1,0,0,0,.7,1h.2l1,.3h.5l2.4.9a2.2,2.2,0,0,1,1.2,2,2.3,2.3,0,0,1-1,2,5.6,5.6,0,0,1-5.3,0,3.2,3.2,0,0,1-1.3-2.6h1.4a2.3,2.3,0,0,0,.8,1.6,2.8,2.8,0,0,0,1.7.4,3.4,3.4,0,0,0,1.7-.4,1.1,1.1,0,0,0,.6-1,1.4,1.4,0,0,0-.9-1.2h-.1l-1.7-.6-1-.3-1.1-.4a2,2,0,0,1-1.1-1.8,2.2,2.2,0,0,1,1-1.9A4.2,4.2,0,0,1,328.8,93.9Z" style="fill:#fff"/><path d="M42.1,232.6h-6v7.3h1.2v-6.1h3.5v6.1h1.2Zm-.4,11.3a1.4,1.4,0,0,0,1-.3,3.9,3.9,0,0,0,.5-2l-1.1-.4v.4a3.1,3.1,0,0,1-.2.9l-.3.2h-.8c-.2,0-.3-.1-.3-.4v-2.5h-1a11.5,11.5,0,0,0,.3-2.1v-3.1H38.5v3.1a7.4,7.4,0,0,1-.8,3.4,5.6,5.6,0,0,1-2.9,2l.7,1a6,6,0,0,0,3.1-2.3,6.4,6.4,0,0,0,.6-1.3v2c0,.8.4,1.3,1.2,1.3Zm-10.3-7v1.2h1.4V241l-1.6.4.3,1.2a31.6,31.6,0,0,0,4.1-1.3V240l-1.5.6v-2.6h1.3v-1.2H34.1v-2.7h1.5V233H31.3v1.2h1.5v2.7Zm16.8.1h4.8v1.1H48.3Zm4.8,2.2v1.1H48.3v-1.1Zm0,2.2v1.2c0,.3-.2.4-.5.4H51.2l.3,1.1H53c.8,0,1.2-.4,1.2-1.1v-7H48.3l.7-1.2h6.8v-1.2H49.6l.4-1.3H48.7l-.5,1.4H44.4v1.2h3.2a13.9,13.9,0,0,1-3.5,4.1l.8,1a17,17,0,0,0,2.2-2.2v6.4h1.1v-2.7Zm12-6.1h1.7a13.5,13.5,0,0,1-.7,4.1,17.4,17.4,0,0,1-1.1-3.5Zm.4,5.4a7.2,7.2,0,0,1-2.3,2.5l.6,1a8.7,8.7,0,0,0,2.3-2.4,8.4,8.4,0,0,0,2.2,2.4l.7-1a7.8,7.8,0,0,1-2.3-2.5,13.8,13.8,0,0,0,1.2-5.4h.7v-1.2H65.4c.1-.5.2-1.1.3-1.7l-1.2-.2a16.8,16.8,0,0,1-1.5,5.7l.8,1,.6-1.3A18.2,18.2,0,0,0,65.5,240.6Zm-5-2.3H59.4l-.2.5v.3H57.3v1h1.4l-.8,1.5,1.1.5.5.2a11.1,11.1,0,0,1-2.5.9l.6,1a11,11,0,0,0,3.2-1.3l1.8.9.7-1-1.5-.7a4.8,4.8,0,0,0,1.2-2.1v-1H60.3l.2-.6Zm.1,3.2-1.3-.5.6-1h2A4.6,4.6,0,0,1,60.6,241.5Zm-2.1-9.1-1,.3a11.6,11.6,0,0,1,.8,1.7l.9-.4A11.1,11.1,0,0,0,58.5,232.4Zm3.7,0a8.2,8.2,0,0,1-1,1.6l.9.4a9.3,9.3,0,0,0,1-1.6Zm-4.9,2.2v1.1h1.6a5.5,5.5,0,0,1-1.9,1.7l.6,1a6.1,6.1,0,0,0,2.1-2.4v2.2h1.1v-1.4l1.4,1.1.6-1-2.1-1h2.2v-1.1H60.9v-2.4H59.8v2.4ZM71.5,244c.8,0,1.2-.4,1.2-1.3v-3.6l1.1-.5v-1.2l-1.1.5v-2.2h1.1v-1.2H72.8v-2.3H71.6v2.3H70.1v1.2h1.4v2.7l-1.7.5.3,1.2,1.4-.5v2.8c0,.3-.2.5-.4.5h-.9l.3,1.2Zm4-5.6h2.3v1.3H75.8v4.4h1.1v-.6H80v.6h1.1v-4.4H79.1v-1.3h2.7v-1.1H79.1V236h2.4v-3.3h-7v4.2a14.1,14.1,0,0,1-1.3,6.4l1,.9A15.4,15.4,0,0,0,75.6,238.4Zm2.3-2.4v1.3H75.6v-.4h0V236Zm-.9,6.5v-1.7H80v1.7Zm3.3-8.7v1.1H75.6v-1.1Zm8.1-1.5a18.3,18.3,0,0,1-5.6,4.4l.6,1.1a18.3,18.3,0,0,0,5.4-4.4,17.4,17.4,0,0,0,5.3,4.4l.6-1.1a18.1,18.1,0,0,1-5.5-4.4Zm2.5,5.6v1.5c0,.5-.2.7-.5.7H88.7l.3,1.1h1.8c.8-.1,1.2-.5,1.2-1.4v-3.1H85.4v5.7a1.2,1.2,0,0,0,1.4,1.4h4.5a3.4,3.4,0,0,0,1.8-.4c.3-.3.6-1,.7-2.4l-1.1-.4a4.2,4.2,0,0,1-.4,1.6c-.2.2-.6.4-1.4.4H87.3c-.5,0-.7-.2-.7-.7v-4.2Zm11.5-5.8-1.4.2.6.9H96.8v4a15,15,0,0,1-1,6l1,.9a17.1,17.1,0,0,0,1.3-6.9v-2.8h9.5v-1.2h-4.6Zm-1.1,2.5,1.2.3-.3.9h4.9v1.1h-5.3a14.6,14.6,0,0,1-1,2h2v-1.4h1.2v1.4h2.8v1.1h-2.8v1.2h3.8v1.1h-3.8v2h-1.2v-2H98.1v-1.1h4.5v-1.2H99.4l-.3-1.1a9.2,9.2,0,0,0,1.2-2H98.6v-1.1h2.2Z" style="fill:#fff"/><path d="M525.9,127.3l4.9-4.7,4.7,4.7h5.7a4.1,4.1,0,0,1,4.1,4.1v11.1a4.1,4.1,0,0,1-4.1,4.1H506.1a4.1,4.1,0,0,1-4.1-4.1V131.4a4.1,4.1,0,0,1,4.1-4.1Z" style="fill:#f0f1f7;stroke:#555a6f;stroke-width:1.0779999494552612px"/><path d="M639.6,193.2l4.9-4.7,4.7,4.7h5.7a4.1,4.1,0,0,1,4.1,4.1v11.1a4.1,4.1,0,0,1-4.1,4.1H609.4a4.1,4.1,0,0,1-4.1-4.1V197.3a4.1,4.1,0,0,1,4.1-4.1Z" style="fill:#f0f1f7;stroke:#555a6f;stroke-width:1.0779999494552612px"/><path d="M359.3,198.4l4.9-4.7,4.7,4.7h5.7a4.1,4.1,0,0,1,4.1,4.1v11.1a4.1,4.1,0,0,1-4.1,4.1H298.2a4.1,4.1,0,0,1-4.1-4.1V202.5a4.1,4.1,0,0,1,4.1-4.1Z" style="fill:#f0f1f7;stroke:#555a6f;stroke-width:1.0779999494552612px"/><path d="M445.9,246.2l4.9-4.7,4.7,4.7h5.7a4.1,4.1,0,0,1,4.1,4.1v11.1a4.1,4.1,0,0,1-4.1,4.1H405.4a4.1,4.1,0,0,1-4.1-4.1V250.2a4.1,4.1,0,0,1,4.1-4.1Z" style="fill:#f0f1f7;stroke:#555a6f;stroke-width:1.0779999494552612px"/><path d="M533.7,297.8l4.9-4.7,4.7,4.7H549a4.1,4.1,0,0,1,4.1,4.1V313a4.1,4.1,0,0,1-4.1,4.1H493.2a4.1,4.1,0,0,1-4.1-4.1V301.9a4.1,4.1,0,0,1,4.1-4.1Z" style="fill:#f0f1f7;stroke:#555a6f;stroke-width:1.0779999494552612px"/><path d="M309.7,317.2l-4.9-4.7-4.7,4.7h-5.7a4.1,4.1,0,0,0-4.1,4.1v11.1a4.1,4.1,0,0,0,4.1,4.1H399.2a4.1,4.1,0,0,0,4.1-4.1V321.3a4.1,4.1,0,0,0-4.1-4.1Z" style="fill:#f0f1f7;stroke:#555a6f;stroke-width:1.0779999494552612px"/><path d="M513.9,140.8v-7.3h2.4a3.2,3.2,0,0,1,1.9.5,1.7,1.7,0,0,1,.7,1.5,1.5,1.5,0,0,1-.3.9,1.7,1.7,0,0,1-.8.6,1.6,1.6,0,0,1,1.1.6,1.8,1.8,0,0,1,.4,1.2,1.9,1.9,0,0,1-.7,1.6,2.9,2.9,0,0,1-1.9.5Zm1.2-3.3v2.4h1.7a1.5,1.5,0,0,0,1-.3,1,1,0,0,0,.3-.8,1.2,1.2,0,0,0-.3-.9,1.4,1.4,0,0,0-.9-.3Zm0-.9h1.3a1.4,1.4,0,0,0,.9-.3.9.9,0,0,0,.3-.8,1,1,0,0,0-.3-.8,1.7,1.7,0,0,0-1-.3h-1.2Zm6.7,4.3h-1.2v-7.3h1.2Zm6.5-4.8a17.6,17.6,0,0,1,3.3,1.5l.5-.8a24.5,24.5,0,0,0-3.8-1.3h3.9v-.9h-3.9v-2h-1v2h-3.9v.9h3a8,8,0,0,1-3,1.5l.5.8a7.4,7.4,0,0,0,3.4-2.4V137h1Zm-.6,3.4a7.8,7.8,0,0,0,4.2,2.6l.5-.9a7.9,7.9,0,0,1-3.8-1.9h3.7v-.9h-4.1a7.3,7.3,0,0,0,.2-.9h-1a5.7,5.7,0,0,1-.2.9h-3.8v.9h3.4l-.5.6a6.8,6.8,0,0,1-3,1.3l.4.9a7.3,7.3,0,0,0,3.4-1.6Zm-2.3-6.9-.8.3a8,8,0,0,1,.8,1.4l.8-.2A7.4,7.4,0,0,0,525.4,132.4Zm4.8,0,.9.2a5.2,5.2,0,0,1-.8,1.5l-.8-.3A5.3,5.3,0,0,0,530.3,132.4Z"/><path d="M619.7,202.2l-1.1.5v-1.8h1.1V200h-1.1v-1.8h-1V200h-1.4v.9h1.4v2.2l-1.6.5.2,1,1.4-.5v2.3a.3.3,0,0,1-.4.4h-.8l.2.9h1a.9.9,0,0,0,1-1v-3l1.1-.5Zm1.4.9h.5a5.7,5.7,0,0,0,1.2,2.6,4.9,4.9,0,0,1-1.5,1.1l.5.9a5.8,5.8,0,0,0,1.7-1.2l1.6,1.2.7-.8a8.2,8.2,0,0,1-1.7-1.2,6.7,6.7,0,0,0,1-2.7v-.8h-3.9v-2.8H624v.4a2.3,2.3,0,0,1-.1.7l-.3.2h-1.1l.3.8h.8q1,0,1.2-.6a9.8,9.8,0,0,0,.2-2.4h-4.8v9.2h.9Zm1.3,0h1.7a6.4,6.4,0,0,1-.8,1.9A4.4,4.4,0,0,1,622.4,203.1Zm4.6-4.1v.9h3.6v.8h-3v.9h3v.8h-4v.9h3.1a8.3,8.3,0,0,1-3.4,2l.5.9,1.7-.8v1.2c0,.2-.1.4-.4.5l.3.8,3.4-1.1-.2-.9-2.1.8v-1.9a7,7,0,0,0,1.3-1.4h.3a7.6,7.6,0,0,0,4.1,4.5l.5-.9a6.4,6.4,0,0,1-2.3-1.4,6,6,0,0,0,1.7-1.2l-.7-.7a5.4,5.4,0,0,1-1.5,1.2,6.9,6.9,0,0,1-.9-1.5h3.6v-.9h-4v-.8h3v-.9h-3v-.8h3.6V199h-3.6v-.8h-1v.8Zm15,2.8a17.6,17.6,0,0,1,3.3,1.5l.5-.8a24.5,24.5,0,0,0-3.8-1.3h3.9v-.9H642v-2h-1v2h-3.9v.9h3a8,8,0,0,1-3,1.5l.5.8a7.4,7.4,0,0,0,3.4-2.4v1.8h1Zm-.6,3.4a7.8,7.8,0,0,0,4.2,2.6l.5-.9a7.9,7.9,0,0,1-3.8-1.9H646V204h-4.1a7.3,7.3,0,0,0,.2-.9h-1a5.7,5.7,0,0,1-.2.9H637v.9h3.4l-.5.6a6.8,6.8,0,0,1-3,1.3l.4.9a7.3,7.3,0,0,0,3.4-1.6Zm-2.3-6.9-.8.3a8.1,8.1,0,0,1,.8,1.4l.8-.2A7.4,7.4,0,0,0,639.1,198.3Zm4.8,0,.9.2a5.2,5.2,0,0,1-.8,1.5l-.8-.3A5.3,5.3,0,0,0,643.9,198.3Z"/><path d="M311.3,205.8h1.3a10.8,10.8,0,0,1-.6,3.3,14,14,0,0,1-.9-2.8Zm.3,4.3a5.7,5.7,0,0,1-1.8,2l.5.8a7,7,0,0,0,1.8-1.9,6.7,6.7,0,0,0,1.7,1.9l.5-.8a6.2,6.2,0,0,1-1.8-2,11.1,11.1,0,0,0,.9-4.3h.6v-.9h-2.6c.1-.4.1-.9.2-1.3l-1-.2a13.4,13.4,0,0,1-1.2,4.6l.6.8.5-1A14.6,14.6,0,0,0,311.7,210.1Zm-4-1.8h-.9v.6h-1.5v.8h1.1l-.7,1.2.9.4.4.2-2,.7.5.8a8.8,8.8,0,0,0,2.6-1.1l1.5.8.5-.8-1.2-.6a3.9,3.9,0,0,0,1-1.6v-.8h-2.1l.2-.5Zm0,2.6-1.1-.4.5-.8h1.6A3.6,3.6,0,0,1,307.7,210.8Zm-1.7-7.3-.8.3.7,1.3.7-.3Zm3,0a6.6,6.6,0,0,1-.8,1.3l.7.4a7.4,7.4,0,0,0,.8-1.3Zm-3.9,1.8v.9h1.3a4.4,4.4,0,0,1-1.5,1.3l.5.8a4.9,4.9,0,0,0,1.7-2V208h.9v-1.2l1.2.9.5-.8-1.7-.8h1.8v-.9H308v-1.9h-.9v1.9Zm11.4,7.5c.6,0,1-.3,1-1v-2.9l.9-.4h0v-1l-.9.4v-1.8h.9v-.9h-.9v-1.9h-1v1.9h-1.2v.9h1.2v2.1l-1.3.4.2,1,1.1-.4v2.2c0,.3-.1.4-.4.4h-.8l.2.9Zm3.2-4.5h1.9v1.1h-1.7v3.5h.9v-.4h2.4v.4h.9v-3.5h-1.7v-1.1h2.1v-.9h-2.1v-1h1.9v-2.7h-5.6V207a11.3,11.3,0,0,1-1.1,5.1l.8.7A12.3,12.3,0,0,0,319.7,208.3Zm1.9-1.9v1h-1.8V207h0v-.7Zm-.7,5.2v-1.3h2.4v1.3Zm2.6-7v.9h-3.7v-.9Zm5.2,3.2-.9.4v-2h.9v-.9h-.9v-1.8h-1v1.8h-1.1v.9h1.1v2.3l-1.2.3.2.9,1-.3v2.2a.3.3,0,0,1-.4.4h-.8l.2,1h.9c.6,0,1-.3,1-1V209l.9-.4Zm1.4-.5h1.3v-1H330v-2.9h-1v7.9a.6.6,0,0,1-.4.6l.2.9,2.5-.8-.2-.9-1.2.4Zm3.6,5.5a1.1,1.1,0,0,0,.9-.3,4.6,4.6,0,0,0,.4-2.1l-.9-.3v.5a3.1,3.1,0,0,1-.2,1.1.4.4,0,0,1-.4.2H333q-.3,0-.3-.4v-4.2l2.2-1-.6-.8-1.6.8v-2.9h-1v8.3c0,.7.3,1.1,1,1.1Zm3.3-5.1v2.7h3.2v.5h-3.4v.6h3.4v.5H336v.7h9.3v-.7h-4.2v-.5h3.4v-.6h-3.4v-.5h3.2v-2.7Zm6.4,2.1h-2.3v-.5h2.3Zm-3.3,0h-2.2v-.5h2.2Zm-2.2-1v-.5h2.2v.5Zm3.2-.5h2.3v.5h-2.3Zm-3.9-4.8v2.6h6.9v-2.6Zm6,2.1h-5v-.5h5Zm-5-1V204h5v.5Zm-2.1,2v.7h9.3v-.7Zm19.3-1.8h-3.5v7.9h.9v-.7h1.6v.7h1Zm-2.6,6.3v-5.4h1.6v5.4Zm-4.8-7.8v2h-1.6v1h1.6c0,2.7-.6,4.7-1.8,6l.7.7q1.9-2.1,2-6.6H350V209c0,1.2,0,1.9-.1,2.2a.7.7,0,0,1-.8.7h-.9l.2.9h.8c.9,0,1.4-.4,1.5-1.2v-.4q.1-1.5.1-5.9h-2.1v-2Zm12.9,1.6h-3.5V204h7.9v.9h-3.5v6.3h4.1v1h-9.2v-1h4.1Z"/><path d="M418.5,253.5h1.3a10.8,10.8,0,0,1-.6,3.3,14,14,0,0,1-.9-2.8Zm.3,4.3a5.7,5.7,0,0,1-1.8,2l.5.8a7,7,0,0,0,1.8-1.9,6.7,6.7,0,0,0,1.7,1.9l.5-.8a6.2,6.2,0,0,1-1.8-2,11.1,11.1,0,0,0,.9-4.3h.6v-.9h-2.6c.1-.4.1-.9.2-1.3l-1-.2a13.4,13.4,0,0,1-1.2,4.6l.6.8.5-1A14.6,14.6,0,0,0,418.9,257.8Zm-4.9-1.9-.2.6h-1.5v.8h1.1l-.7,1.2.9.4.4.2-2,.7.5.8a8.8,8.8,0,0,0,2.6-1.1l1.5.8.5-.8-1.2-.6a3.9,3.9,0,0,0,1-1.6v-.8h-2.1l.2-.5H414Zm1,2.7-1.1-.4.5-.8h1.6A3.6,3.6,0,0,1,414.9,258.6Zm-1.7-7.3-.8.3.7,1.3.7-.3Zm3,0a6.6,6.6,0,0,1-.8,1.3l.7.4a7.4,7.4,0,0,0,.8-1.3Zm-3.9,1.8v.9h1.3a4.4,4.4,0,0,1-1.5,1.3l.5.8a4.9,4.9,0,0,0,1.7-2v1.7h.9v-1.2l1.2.9.5-.8-1.7-.8H417V253h-1.8v-1.9h-.9V253Zm11.4,7.5c.6,0,1-.3,1-1v-2.9l.9-.4h0v-1l-.9.4V254h.9V253h-.9v-1.9h-1V253h-1.2v.9h1.2v2.1l-1.3.4.2,1,1.1-.4v2.2c0,.3-.1.4-.4.4h-.8l.2.9Zm3.2-4.5h1.9v1.1h-1.7v3.5h.9v-.4h2.4v.4h.9v-3.5h-1.7v-1.1h2.1v-.9h-2.1v-1h1.9v-2.7H426v3.4a11.3,11.3,0,0,1-1.1,5.1l.8.7A12.3,12.3,0,0,0,426.9,256.1Zm1.9-1.9v1h-1.8v-.3h0v-.7Zm-.7,5.2V258h2.4v1.3Zm2.6-7v.9h-3.7v-.9Zm2.2.6v.9H434V256l-1.3.4.2,1,1-.4v2.3c0,.3-.1.4-.4.4h-.7l.2.9h.8c.6,0,1-.4,1-1v-2.9l.9-.4v-1l-.9.4h0v-1.7h.9v-.9h-.9v-1.8h-1v1.8Zm6.4-1.9-1,.2.4.8h-2.5V254h.9v-1H441v1h.9V252h-2.3Zm-1.3,2.2a4,4,0,0,1-1.5,1.7l.7.6a5,5,0,0,0,1.6-2Zm2-.1-.7.5,1.5,1.9.8-.5A14.2,14.2,0,0,0,440,253.2Zm-3.5,2.7v.9h3.1a10.2,10.2,0,0,0-2.7,1.6,1.5,1.5,0,0,0-.6,1.1c0,.7.5,1,1.4,1h2.8a1.9,1.9,0,0,0,1.2-.3,3.1,3.1,0,0,0,.5-1.6l-.9-.3v.4a2,2,0,0,1-.2.8l-.5.2h-2.7q-.4,0-.4-.2a.8.8,0,0,1,.3-.5,15.5,15.5,0,0,1,3.8-2.2v-.8Zm7.8,4.7q.9,0,.9-1.1v-2.8l.9-.4v-1l-.9.5V254h.9V253h-.9v-1.9h-1V253h-1.1v.9h1.1v2.2l-1.3.4.2.9,1-.4v2.1q0,.5-.3.5h-.8l.2.9Zm6.8-4h-.7v-1.8h-.9v1.8h-.7v-1.3h-.9v2.2h1.6v1.9h-.9v-1.4h-.9v2.7h.9v-.4h2.8v.4h.9v-2.7h-.9v1.4h-.9v-1.9H452v-2.2h-.9Zm.1-4.2v1h-3.7v-1Zm-3.7,1.8v.8a11.9,11.9,0,0,1-1.3,5.6l-.7-.7a10.6,10.6,0,0,0,1-4.9v-3.6h5.6v2.7Z"/><path d="M506.4,305.2h1.3a10.8,10.8,0,0,1-.6,3.3,14,14,0,0,1-.9-2.8Zm.3,4.3a5.7,5.7,0,0,1-1.8,2l.5.8a7,7,0,0,0,1.8-1.9,6.7,6.7,0,0,0,1.7,1.9l.5-.8a6.2,6.2,0,0,1-1.8-2,11.1,11.1,0,0,0,.9-4.3h.6v-.9h-2.6c.1-.4.1-.9.2-1.3l-1-.2a13.4,13.4,0,0,1-1.2,4.6l.6.8.5-1A14.6,14.6,0,0,0,506.7,309.5Zm-4.9-1.9-.2.6h-1.5v.8h1.1l-.7,1.2.9.4.4.2-2,.7.5.8a8.8,8.8,0,0,0,2.6-1.1l1.5.8.5-.8-1.2-.6a3.9,3.9,0,0,0,1-1.6v-.8h-2.1l.2-.5h-.9Zm1,2.7-1.1-.4.5-.8h1.6A3.6,3.6,0,0,1,502.7,310.2Zm-1.7-7.3-.8.3.7,1.3.7-.3Zm3,0a6.6,6.6,0,0,1-.8,1.3l.7.4a7.4,7.4,0,0,0,.8-1.3Zm-3.9,1.8v.9h1.3a4.4,4.4,0,0,1-1.5,1.3l.5.8a4.9,4.9,0,0,0,1.7-2v1.7h.9v-1.2l1.2.9.5-.8-1.7-.8h1.8v-.9H503v-1.9h-.9v1.9Zm11.4,7.5c.6,0,1-.3,1-1v-2.9l.9-.4h0v-1l-.9.4v-1.8h.9v-.9h-.9v-1.9h-1v1.9h-1.2v.9h1.2v2.1l-1.3.4.2,1,1.1-.4v2.2c0,.3-.1.4-.4.4h-.8l.2.9Zm3.2-4.5h1.9v1.1h-1.7v3.5h.9v-.4h2.4v.4h.9v-3.5h-1.7v-1.1h2.1v-.9h-2.1v-1h1.9v-2.7h-5.6v3.4a11.3,11.3,0,0,1-1.1,5.1l.8.7A12.3,12.3,0,0,0,514.7,307.7Zm1.9-1.9v1h-1.8v-.3h0v-.7Zm-.7,5.2v-1.3h2.4V311Zm2.6-7v.9h-3.7V304Zm5.3,5.9a8.8,8.8,0,0,1-3,1.4l.5.8a7.7,7.7,0,0,0,3.5-2.2h.1v2.4h1v-2.4h.1a7.5,7.5,0,0,0,3.5,2.2l.4-.9a8,8,0,0,1-3-1.3h2.8V309h-4v-.4h-1v.4h-4v.9Zm-2-4.3v2.8h7.7v-.8h-3.4V307h2.8v-.7h-2.8v-.5h2.8V305h-2.8v-.5h3.2v-.8H526l-.4-1-1,.2.4.8h-2l.3-.7-.9-.2a7.5,7.5,0,0,1-2,2.8l.6.7Zm3.4,1.9h-2.5V307h2.5Zm0-1.3h-2.5v-.5h2.5Zm0-1.3h-2.5v-.5h2.5Zm5.9-1.1h4.1l-.5-1,1.1-.2.4,1.2h4.1v.9h-4.1v1.1h3.4v3.8a.9.9,0,0,1-1,1h-1l-.2-.9h1c.2,0,.4-.1.4-.4v-2.7h-2.4v5.4h-1v-5.4h-2.3v4h-1v-4.9h3.2v-1.1H531Z"/><path d="M307.5,324.6h1.3a10.8,10.8,0,0,1-.6,3.3,14,14,0,0,1-.9-2.8Zm.3,4.3a5.7,5.7,0,0,1-1.8,2l.5.8a7,7,0,0,0,1.8-1.9,6.7,6.7,0,0,0,1.7,1.9l.5-.8a6.2,6.2,0,0,1-1.8-2,11.1,11.1,0,0,0,.9-4.3h.6v-.9h-2.6c.1-.4.1-.9.2-1.3l-1-.2a13.4,13.4,0,0,1-1.2,4.6l.6.8.5-1A14.6,14.6,0,0,0,307.8,328.9Zm-4.9-1.9-.2.6h-1.5v.8h1.1l-.7,1.2.9.4.4.2-2,.7.5.8a8.8,8.8,0,0,0,2.6-1.1l1.5.8.5-.8-1.2-.6a3.9,3.9,0,0,0,1-1.6v-.8h-2.1l.2-.5h-.9Zm1,2.7-1.1-.4.5-.8h1.6A3.6,3.6,0,0,1,303.9,329.6Zm-1.7-7.3-.8.3.7,1.3.7-.3Zm3,0a6.6,6.6,0,0,1-.8,1.3l.7.4a7.4,7.4,0,0,0,.8-1.3Zm-3.9,1.8v.9h1.3a4.4,4.4,0,0,1-1.5,1.3l.5.8a4.9,4.9,0,0,0,1.7-2v1.7h.9v-1.2l1.2.9.5-.8-1.7-.8h1.8v-.9h-1.8v-1.9h-.9v1.9Zm11.4,7.5c.6,0,1-.3,1-1v-2.9l.9-.4h0v-1l-.9.4V325h.9V324h-.9v-1.9h-1V324h-1.2v.9h1.2v2.1l-1.3.4.2,1,1.1-.4v2.2c0,.3-.1.4-.4.4h-.8l.2.9Zm3.2-4.5h1.9v1.1h-1.7v3.5h.9v-.4h2.4v.4h.9v-3.5h-1.7v-1.1h2.1v-.9h-2.1v-1h1.9v-2.7H315v3.4a11.3,11.3,0,0,1-1.1,5.1l.8.7A12.3,12.3,0,0,0,315.9,327.1Zm1.9-1.9v1h-1.8v-.3h0v-.7Zm-.7,5.2V329h2.4v1.3Zm2.6-7v.9h-3.7v-.9Zm3-1.1-.7.7a11.2,11.2,0,0,1,1.7,1.7l.7-.7Zm5.7,9.3H331l.2-1h-4.7l-1.4-.2-.8-.6-.2-.2v-3.9h-2.3v1h1.4v2.9a4.4,4.4,0,0,0-1.4,1.6l.7.7c.5-1,.9-1.4,1.1-1.4l.4.3a2.3,2.3,0,0,0,1.1.7l1.7.2Zm-3.6-5.9v.9h2.6v3.7h1v-3.7H331v-.9h-2.6v-2.1l2.1-.4-.3-.9a27.5,27.5,0,0,1-5,.7l.2.9,2.1-.2v1.9Zm7.6-1.9h1.3v1.3h-1.5v.9h1.4a7.7,7.7,0,0,1-1.6,2.8l.4,1.1a10.8,10.8,0,0,0,1.3-2.4v4.3h1v-4.5l.3.4.6.8v-.2l.6.9a8.3,8.3,0,0,0,2.5-1.1h1.7a4.2,4.2,0,0,1-1.5,1.5l-.9-.8-.7.5.8.8a12.1,12.1,0,0,1-2.7.8l.5.9q4.6-1.1,5.6-3.8V327h-1.8l.4-.6-.9-.4a5.9,5.9,0,0,1-3.6,2.1l.4-.6-1.4-1.2v-.5h1.3v-.9h-1.3v-1.5l1.3-.3-.3-.9a15,15,0,0,1-3.3.6Zm6.7-1.4-1-.2a7,7,0,0,1-2.3,2.1l.7.8a7.2,7.2,0,0,0,1.6-1.2h1.9a4.9,4.9,0,0,1-1.4,1.4l-.6-.8-.7.5.6.7-1.9.7.5.7q3.6-1,4.5-3.4v-.8h-2.2Zm6.1,1.6a.8.8,0,0,1,.6.2.7.7,0,0,1,.2.6c0,.3-.3.7-.7,1H345l-.4-.5a1.3,1.3,0,0,1-.3-.7.7.7,0,0,1,.2-.5Zm-1,2.4-.7.4h-.1a2.1,2.1,0,0,0-.9,1.7,1.9,1.9,0,0,0,.8,1.7,3.1,3.1,0,0,0,1.9.5,3.1,3.1,0,0,0,2.3-.9l.7.8h1.4L348,329a5.9,5.9,0,0,0,.7-2.7h-1.1a6.9,6.9,0,0,1-.4,1.8l-1.5-1.6.6-.4a1.8,1.8,0,0,0,.9-1.5,1.4,1.4,0,0,0-.6-1.2,2.2,2.2,0,0,0-1.3-.4,2.1,2.1,0,0,0-1.4.4,1.4,1.4,0,0,0-.6,1.2,1.5,1.5,0,0,0,.3.8Zm.9,3.4a1.7,1.7,0,0,1-1-.3,1,1,0,0,1-.4-.9,1.2,1.2,0,0,1,.3-.9l.8-.6h.1l1.9,2A2.1,2.1,0,0,1,345,329.8Zm6.9.6v1h7.4v-1h-2a31.4,31.4,0,0,0,1.5-5l-1-.3a30.6,30.6,0,0,1-1.6,5.3Zm1.3-4.8-.8.3a30.1,30.1,0,0,1,1,3.7l.9-.2A29.8,29.8,0,0,0,353.2,325.5Zm2-.8-.9.3a37.2,37.2,0,0,1,.9,3.8l.9-.2A36.6,36.6,0,0,0,355.2,324.8Zm.1-2.7-1.1.2.5.8h-3.8v3.1a11.7,11.7,0,0,1-.8,4.8l.8.7a13.6,13.6,0,0,0,1-5.5V324h7.6v-1h-3.7Zm7.1,3.8h2.4v1.6h-2.4Zm-.1,2.5h2.4v2.9h1v-2.9h2.6v1.5c0,.4-.2.6-.5.6h-1.1l.3,1h1.2a1,1,0,0,0,1.2-1.2v-7.8h-7.9v5.1a5.9,5.9,0,0,1-1,3.4l.8.7A6.2,6.2,0,0,0,362.3,328.4Zm6-.9h-2.6v-1.6h2.6Zm0-2.5h-2.6v-1.5h2.6Zm-3.6-1.5V325h-2.4v-1.5Zm7-1.2-.7.7a11.2,11.2,0,0,1,1.7,1.7l.7-.7Zm5.7,9.3h2.6l.2-1h-4.7l-1.4-.2-.8-.6-.2-.2v-3.9h-2.3v1h1.4v2.9a4.4,4.4,0,0,0-1.4,1.6l.7.7c.5-1,.9-1.4,1.1-1.4l.4.3a2.3,2.3,0,0,0,1.1.7l1.7.2Zm-3.6-5.9v.9h2.6v3.7h1v-3.7H380v-.9h-2.6v-2.1l2.1-.4-.3-.9a27.5,27.5,0,0,1-5,.7l.2.9,2.1-.2v1.9Zm7.6-1.9h1.3v1.3h-1.5v.9h1.4a7.7,7.7,0,0,1-1.6,2.8l.4,1.1a10.8,10.8,0,0,0,1.3-2.4v4.3h1v-4.5l.3.4.6.8v-.2l.6.9a8.3,8.3,0,0,0,2.5-1.1h1.7a4.2,4.2,0,0,1-1.5,1.5l-.9-.8-.7.5.8.8a12.1,12.1,0,0,1-2.7.8l.5.9q4.6-1.1,5.6-3.8V327h-1.8l.4-.6-.9-.4a5.9,5.9,0,0,1-3.6,2.1l.4-.6-1.4-1.2v-.5h1.3v-.9h-1.3v-1.5l1.3-.3-.3-.9a15,15,0,0,1-3.3.6Zm6.7-1.4-.4.6h2.2v.8q-.9,2.4-4.5,3.4l-.5-.7,1.9-.7-.6-.7.7-.5.6.8a4.9,4.9,0,0,0,1.4-1.4H387a7.2,7.2,0,0,1-1.6,1.2l-.7-.8a7,7,0,0,0,2.3-2.1Z"/></svg>