<?xml version="1.0" encoding="UTF-8" standalone="no"?>
<!DOCTYPE svg PUBLIC "-//W3C//DTD SVG 1.1//EN"
 "http://www.w3.org/Graphics/SVG/1.1/DTD/svg11.dtd">
<!-- Generated by graphviz version 2.36.0 (20140111.2315)
 -->
<!-- Title: hash_table_example Pages: 1 -->
<svg width="526pt" height="246pt"
 viewBox="0.00 0.00 526.00 246.00" xmlns="http://www.w3.org/2000/svg" xmlns:xlink="http://www.w3.org/1999/xlink">
<g id="graph0" class="graph" transform="scale(1 1) rotate(0) translate(4 242)">
<title>hash_table_example</title>
<polygon fill="white" stroke="none" points="-4,4 -4,-242 522,-242 522,4 -4,4"/>
<!-- ht1 -->
<g id="node1" class="node"><title>ht1</title>
<polygon fill="#95bbe3" stroke="black" points="0,-115.5 0,-230.5 98,-230.5 98,-115.5 0,-115.5"/>
<text text-anchor="middle" x="49" y="-215.3" font-family="'/usr/share/fonts/truetype/wqy/wqy-microhei.ttc'" font-size="14.00">dictht</text>
<polyline fill="none" stroke="black" points="0,-207.5 98,-207.5 "/>
<text text-anchor="middle" x="49" y="-192.3" font-family="'/usr/share/fonts/truetype/wqy/wqy-microhei.ttc'" font-size="14.00">table</text>
<polyline fill="none" stroke="black" points="0,-184.5 98,-184.5 "/>
<text text-anchor="middle" x="49" y="-169.3" font-family="'/usr/share/fonts/truetype/wqy/wqy-microhei.ttc'" font-size="14.00">size: 4</text>
<polyline fill="none" stroke="black" points="0,-161.5 98,-161.5 "/>
<text text-anchor="middle" x="49" y="-146.3" font-family="'/usr/share/fonts/truetype/wqy/wqy-microhei.ttc'" font-size="14.00">sizemask: 3</text>
<polyline fill="none" stroke="black" points="0,-138.5 98,-138.5 "/>
<text text-anchor="middle" x="49" y="-123.3" font-family="'/usr/share/fonts/truetype/wqy/wqy-microhei.ttc'" font-size="14.00">used: 3</text>
</g>
<!-- bucket -->
<g id="node2" class="node"><title>bucket</title>
<polygon fill="#f2f2f2" stroke="black" points="134.5,-85 134.5,-215 229.5,-215 229.5,-85 134.5,-85"/>
<text text-anchor="middle" x="182" y="-199.8" font-family="'/usr/share/fonts/truetype/wqy/wqy-microhei.ttc'" font-size="14.00">dictEntry**</text>
<text text-anchor="middle" x="182" y="-184.8" font-family="'/usr/share/fonts/truetype/wqy/wqy-microhei.ttc'" font-size="14.00">(bucket)</text>
<polyline fill="none" stroke="black" points="134.5,-177 229.5,-177 "/>
<text text-anchor="middle" x="182" y="-161.8" font-family="'/usr/share/fonts/truetype/wqy/wqy-microhei.ttc'" font-size="14.00">0</text>
<polyline fill="none" stroke="black" points="134.5,-154 229.5,-154 "/>
<text text-anchor="middle" x="182" y="-138.8" font-family="'/usr/share/fonts/truetype/wqy/wqy-microhei.ttc'" font-size="14.00">1</text>
<polyline fill="none" stroke="black" points="134.5,-131 229.5,-131 "/>
<text text-anchor="middle" x="182" y="-115.8" font-family="'/usr/share/fonts/truetype/wqy/wqy-microhei.ttc'" font-size="14.00">2</text>
<polyline fill="none" stroke="black" points="134.5,-108 229.5,-108 "/>
<text text-anchor="middle" x="182" y="-92.8" font-family="'/usr/share/fonts/truetype/wqy/wqy-microhei.ttc'" font-size="14.00">3</text>
</g>
<!-- ht1&#45;&gt;bucket -->
<g id="edge1" class="edge"><title>ht1:table&#45;&gt;bucket:head</title>
<path fill="none" stroke="black" stroke-width="2" d="M98,-196C110,-196 115.25,-196 123.875,-196"/>
<polygon fill="black" stroke="black" stroke-width="2" points="124,-199.5 134,-196 124,-192.5 124,-199.5"/>
</g>
<!-- pair_1 -->
<g id="node3" class="node"><title>pair_1</title>
<polygon fill="#fadcad" stroke="black" points="266.5,-192 266.5,-238 427.5,-238 427.5,-192 266.5,-192"/>
<text text-anchor="middle" x="347" y="-222.8" font-family="'/usr/share/fonts/truetype/wqy/wqy-microhei.ttc'" font-size="14.00">dictEntry</text>
<polyline fill="none" stroke="black" points="266.5,-215 427.5,-215 "/>
<text text-anchor="middle" x="291.5" y="-199.8" font-family="'/usr/share/fonts/truetype/wqy/wqy-microhei.ttc'" font-size="14.00">key1</text>
<polyline fill="none" stroke="black" points="316.5,-192 316.5,-215 "/>
<text text-anchor="middle" x="348" y="-199.8" font-family="'/usr/share/fonts/truetype/wqy/wqy-microhei.ttc'" font-size="14.00">value1</text>
<polyline fill="none" stroke="black" points="379.5,-192 379.5,-215 "/>
<text text-anchor="middle" x="403.5" y="-199.8" font-family="'/usr/share/fonts/truetype/wqy/wqy-microhei.ttc'" font-size="14.00">next</text>
</g>
<!-- bucket&#45;&gt;pair_1 -->
<g id="edge2" class="edge"><title>bucket:table0&#45;&gt;pair_1:head</title>
<path fill="none" stroke="black" stroke-width="2" d="M230,-166C257.299,-166 240.65,-211.873 256.276,-224.058"/>
<polygon fill="black" stroke="black" stroke-width="2" points="255.415,-227.454 266,-227 257.442,-220.754 255.415,-227.454"/>
</g>
<!-- pair_2 -->
<g id="node4" class="node"><title>pair_2</title>
<polygon fill="#fadcad" stroke="black" points="266.5,-72 266.5,-118 427.5,-118 427.5,-72 266.5,-72"/>
<text text-anchor="middle" x="347" y="-102.8" font-family="'/usr/share/fonts/truetype/wqy/wqy-microhei.ttc'" font-size="14.00">dictEntry</text>
<polyline fill="none" stroke="black" points="266.5,-95 427.5,-95 "/>
<text text-anchor="middle" x="291.5" y="-79.8" font-family="'/usr/share/fonts/truetype/wqy/wqy-microhei.ttc'" font-size="14.00">key2</text>
<polyline fill="none" stroke="black" points="316.5,-72 316.5,-95 "/>
<text text-anchor="middle" x="348" y="-79.8" font-family="'/usr/share/fonts/truetype/wqy/wqy-microhei.ttc'" font-size="14.00">value2</text>
<polyline fill="none" stroke="black" points="379.5,-72 379.5,-95 "/>
<text text-anchor="middle" x="403.5" y="-79.8" font-family="'/usr/share/fonts/truetype/wqy/wqy-microhei.ttc'" font-size="14.00">next</text>
</g>
<!-- bucket&#45;&gt;pair_2 -->
<g id="edge5" class="edge"><title>bucket:table2&#45;&gt;pair_2:head</title>
<path fill="none" stroke="black" stroke-width="2" d="M230,-119C242.781,-119 247.179,-112.109 255.9,-108.771"/>
<polygon fill="black" stroke="black" stroke-width="2" points="256.755,-112.174 266,-107 255.546,-105.279 256.755,-112.174"/>
</g>
<!-- pair_3 -->
<g id="node5" class="node"><title>pair_3</title>
<polygon fill="#fadcad" stroke="black" points="266.5,-7 266.5,-53 427.5,-53 427.5,-7 266.5,-7"/>
<text text-anchor="middle" x="347" y="-37.8" font-family="'/usr/share/fonts/truetype/wqy/wqy-microhei.ttc'" font-size="14.00">dictEntry</text>
<polyline fill="none" stroke="black" points="266.5,-30 427.5,-30 "/>
<text text-anchor="middle" x="291.5" y="-14.8" font-family="'/usr/share/fonts/truetype/wqy/wqy-microhei.ttc'" font-size="14.00">key3</text>
<polyline fill="none" stroke="black" points="316.5,-7 316.5,-30 "/>
<text text-anchor="middle" x="348" y="-14.8" font-family="'/usr/share/fonts/truetype/wqy/wqy-microhei.ttc'" font-size="14.00">value3</text>
<polyline fill="none" stroke="black" points="379.5,-7 379.5,-30 "/>
<text text-anchor="middle" x="403.5" y="-14.8" font-family="'/usr/share/fonts/truetype/wqy/wqy-microhei.ttc'" font-size="14.00">next</text>
</g>
<!-- bucket&#45;&gt;pair_3 -->
<g id="edge7" class="edge"><title>bucket:table3&#45;&gt;pair_3:head</title>
<path fill="none" stroke="black" stroke-width="2" d="M230,-96C254.563,-96 242.481,-56.8414 256.165,-45.2162"/>
<polygon fill="black" stroke="black" stroke-width="2" points="257.583,-48.4349 266,-42 255.407,-41.7816 257.583,-48.4349"/>
</g>
<!-- null1 -->
<g id="node7" class="node"><title>null1</title>
<polygon fill="lightgrey" stroke="none" points="374,-173 320,-173 320,-137 374,-137 374,-173"/>
<text text-anchor="middle" x="347" y="-151.3" font-family="'/usr/share/fonts/truetype/wqy/wqy-microhei.ttc'" font-size="14.00">NULL</text>
</g>
<!-- bucket&#45;&gt;null1 -->
<g id="edge4" class="edge"><title>bucket:table1&#45;&gt;null1</title>
<path fill="none" stroke="black" stroke-width="2" d="M230,-142C256.887,-142 287.064,-145.492 309.897,-148.856"/>
<polygon fill="black" stroke="black" stroke-width="2" points="309.419,-152.324 319.834,-150.38 310.48,-145.405 309.419,-152.324"/>
</g>
<!-- null0 -->
<g id="node6" class="node"><title>null0</title>
<polygon fill="lightgrey" stroke="none" points="518,-221 464,-221 464,-185 518,-185 518,-221"/>
<text text-anchor="middle" x="491" y="-199.3" font-family="'/usr/share/fonts/truetype/wqy/wqy-microhei.ttc'" font-size="14.00">NULL</text>
</g>
<!-- pair_1&#45;&gt;null0 -->
<g id="edge3" class="edge"><title>pair_1:next&#45;&gt;null0</title>
<path fill="none" stroke="black" stroke-width="2" d="M428,-203C436.25,-203 445.116,-203 453.492,-203"/>
<polygon fill="black" stroke="black" stroke-width="2" points="453.754,-206.5 463.754,-203 453.754,-199.5 453.754,-206.5"/>
</g>
<!-- null2 -->
<g id="node8" class="node"><title>null2</title>
<polygon fill="lightgrey" stroke="none" points="518,-101 464,-101 464,-65 518,-65 518,-101"/>
<text text-anchor="middle" x="491" y="-79.3" font-family="'/usr/share/fonts/truetype/wqy/wqy-microhei.ttc'" font-size="14.00">NULL</text>
</g>
<!-- pair_2&#45;&gt;null2 -->
<g id="edge6" class="edge"><title>pair_2:next&#45;&gt;null2</title>
<path fill="none" stroke="black" stroke-width="2" d="M428,-83C436.25,-83 445.116,-83 453.492,-83"/>
<polygon fill="black" stroke="black" stroke-width="2" points="453.754,-86.5001 463.754,-83 453.754,-79.5001 453.754,-86.5001"/>
</g>
<!-- null3 -->
<g id="node9" class="node"><title>null3</title>
<polygon fill="lightgrey" stroke="none" points="518,-36 464,-36 464,-0 518,-0 518,-36"/>
<text text-anchor="middle" x="491" y="-14.3" font-family="'/usr/share/fonts/truetype/wqy/wqy-microhei.ttc'" font-size="14.00">NULL</text>
</g>
<!-- pair_3&#45;&gt;null3 -->
<g id="edge8" class="edge"><title>pair_3:next&#45;&gt;null3</title>
<path fill="none" stroke="black" stroke-width="2" d="M428,-18C436.25,-18 445.116,-18 453.492,-18"/>
<polygon fill="black" stroke="black" stroke-width="2" points="453.754,-21.5001 463.754,-18 453.754,-14.5001 453.754,-21.5001"/>
</g>
</g>
</svg>
